<?xml version="1.0" encoding="UTF-8" standalone="no"?><!-- Generator: Gravit.io --><svg xmlns="http://www.w3.org/2000/svg" xmlns:xlink="http://www.w3.org/1999/xlink" style="isolation:isolate" viewBox="155 311.7 165 57.3" width="165pt" height="57.3pt"><g><g><g><linearGradient id="_lgradient_0" x1="0" y1="0.5" x2="1.2233430116139348" y2="0.4877185956481115" gradientTransform="matrix(43,0,0,33,172,332.7)" gradientUnits="userSpaceOnUse"><stop offset="0%" stop-opacity="1" style="stop-color:rgb(88,220,246)"/><stop offset="54.347826086956516%" stop-opacity="1" style="stop-color:rgb(52,52,208)"/><stop offset="98.69565217391305%" stop-opacity="1" style="stop-color:rgb(140,27,221)"/></linearGradient><path d=" M 190 332.684 L 200.043 332.684 L 200.043 332.684 L 200.043 332.684 C 208.298 332.684 215 340.077 215 349.184 C 215 358.29 208.298 365.684 200.043 365.684 L 200.043 365.684 L 189 365.684 L 185.211 365.684 L 185.211 365.684 C 177.919 365.684 172 358.29 172 349.184 L 172 349.184 L 172 332.684 L 184 332.684 L 184 344.684 L 184 344.684 L 184 346.684 C 184 350.547 187.137 353.684 191 353.684 L 199 353.684 C 201.76 353.684 204 351.667 204 349.184 L 204 349.184 C 204 346.7 201.76 344.684 199 344.684 L 199 344.684 C 194.033 344.684 190 339.307 190 332.684 L 190 332.684 Z " fill="url(#_lgradient_0)"/><linearGradient id="_lgradient_1" x1="0.5126776216559612" y1="1.1444947209653116" x2="0.4944193061840231" y2="-0.05041059158706007" gradientTransform="matrix(35,0,0,54,172,311.7)" gradientUnits="userSpaceOnUse"><stop offset="2.1739130434782608%" stop-opacity="1" style="stop-color:rgb(106,7,170)"/><stop offset="50.8695652173913%" stop-opacity="1" style="stop-color:rgb(52,52,208)"/><stop offset="98.26086956521739%" stop-opacity="1" style="stop-color:rgb(79,200,245)"/></linearGradient><path d=" M 172 327.434 L 172 327.209 C 172 318.64 177.76 311.684 184.855 311.684 L 184.855 311.684 L 184.855 339.484 L 184.665 347.684 C 185.296 356.677 192.751 362.02 207 363.684 C 204.552 365.424 202.939 365.583 200.043 365.684 L 184.855 365.684 L 184.855 365.684 C 177.76 365.684 172 358.29 172 349.184 L 172 349.184 L 172 327.434 Z " fill="url(#_lgradient_1)"/></g><linearGradient id="_lgradient_2" x1="0.43390663390662954" y1="-0.13971471471471394" x2="0.6222768222768197" y2="1.0594010677344008" gradientTransform="matrix(11,0,0,54,155,311.7)" gradientUnits="userSpaceOnUse"><stop offset="1.3043478260869565%" stop-opacity="1" style="stop-color:rgb(76,197,241)"/><stop offset="50.43478260869565%" stop-opacity="1" style="stop-color:rgb(63,89,168)"/><stop offset="97.82608695652173%" stop-opacity="1" style="stop-color:rgb(108,43,220)"/></linearGradient><path d=" M 155 311.684 L 155 311.684 C 161.071 311.684 166 318.833 166 327.639 L 166 365.684 L 166 365.684 C 159.929 365.684 155 358.931 155 350.615 L 155 311.684 Z " fill="url(#_lgradient_2)"/></g><linearGradient id="_lgradient_3" x1="0.3004324663115012" y1="0.327505330490407" x2="0.6940729134022765" y2="0.7180857616678535" gradientTransform="matrix(100.4,0,0,19.7,219.5,349.3)" gradientUnits="userSpaceOnUse"><stop offset="0%" stop-opacity="1" style="stop-color:rgb(6,39,112)"/><stop offset="97.82608695652173%" stop-opacity="1" style="stop-color:rgb(81,161,235)"/></linearGradient><path d=" M 221.672 349.32 L 221.672 361.762 L 221.672 361.762 Q 221.672 362.16 221.845 362.375 L 221.845 362.375 L 221.845 362.375 Q 222.018 362.59 222.333 362.59 L 222.333 362.59 L 223.34 362.59 L 223.34 364.626 L 222.081 364.626 L 222.081 364.626 Q 220.864 364.626 220.198 363.87 L 220.198 363.87 L 220.198 363.87 Q 219.532 363.115 219.532 361.741 L 219.532 361.741 L 219.532 349.32 L 221.672 349.32 Z  M 229.927 364.73 L 229.927 364.73 Q 228.511 364.73 227.504 364.174 L 227.504 364.174 L 227.504 364.174 Q 226.497 363.619 225.967 362.554 L 225.967 362.554 L 225.967 362.554 Q 225.438 361.489 225.438 359.989 L 225.438 359.989 L 225.438 358.216 L 225.438 358.216 Q 225.438 356.737 225.967 355.683 L 225.967 355.683 L 225.967 355.683 Q 226.497 354.628 227.504 354.078 L 227.504 354.078 L 227.504 354.078 Q 228.511 353.527 229.927 353.527 L 229.927 353.527 L 229.927 353.527 Q 231.344 353.527 232.351 354.078 L 232.351 354.078 L 232.351 354.078 Q 233.358 354.628 233.888 355.683 L 233.888 355.683 L 233.888 355.683 Q 234.417 356.737 234.417 358.216 L 234.417 358.216 L 234.417 360.02 L 234.417 360.02 Q 234.417 361.51 233.888 362.564 L 233.888 362.564 L 233.888 362.564 Q 233.358 363.619 232.351 364.174 L 232.351 364.174 L 232.351 364.174 Q 231.344 364.73 229.927 364.73 L 229.927 364.73 Z  M 229.927 362.695 L 229.927 362.695 Q 231.05 362.695 231.664 361.993 L 231.664 361.993 L 231.664 361.993 Q 232.277 361.29 232.277 360.02 L 232.277 360.02 L 232.277 358.216 L 232.277 358.216 Q 232.277 356.947 231.664 356.254 L 231.664 356.254 L 231.664 356.254 Q 231.05 355.562 229.927 355.562 L 229.927 355.562 L 229.927 355.562 Q 228.805 355.562 228.191 356.254 L 228.191 356.254 L 228.191 356.254 Q 227.578 356.947 227.578 358.216 L 227.578 358.216 L 227.578 360.02 L 227.578 360.02 Q 227.578 361.29 228.191 361.993 L 228.191 361.993 L 228.191 361.993 Q 228.805 362.695 229.927 362.695 L 229.927 362.695 Z  M 241.11 369 L 241.11 369 Q 239.883 369 238.912 368.544 L 238.912 368.544 L 238.912 368.544 Q 237.942 368.087 237.407 367.259 L 237.407 367.259 L 237.407 367.259 L 238.855 365.947 L 238.855 365.947 L 238.855 365.947 Q 239.274 366.524 239.856 366.839 L 239.856 366.839 L 239.856 366.839 Q 240.439 367.154 241.079 367.154 L 241.079 367.154 L 241.079 367.154 Q 242.306 367.154 242.977 366.477 L 242.977 366.477 L 242.977 366.477 Q 243.649 365.8 243.649 364.563 L 243.649 364.563 L 243.649 353.684 L 245.789 353.684 L 245.789 364.248 L 245.789 364.248 Q 245.789 365.748 245.238 366.818 L 245.238 366.818 L 245.238 366.818 Q 244.687 367.888 243.638 368.444 L 243.638 368.444 L 243.638 368.444 Q 242.589 369 241.11 369 L 241.11 369 Z  M 240.911 364.762 L 240.911 364.762 Q 239.715 364.762 238.87 364.243 L 238.87 364.243 L 238.87 364.243 Q 238.026 363.723 237.585 362.727 L 237.585 362.727 L 237.585 362.727 Q 237.145 361.73 237.145 360.335 L 237.145 360.335 L 237.145 357.933 L 237.145 357.933 Q 237.145 356.527 237.575 355.531 L 237.575 355.531 L 237.575 355.531 Q 238.005 354.534 238.828 354.015 L 238.828 354.015 L 238.828 354.015 Q 239.652 353.495 240.806 353.495 L 240.806 353.495 L 240.806 353.495 Q 241.771 353.495 242.573 353.999 L 242.573 353.999 L 242.573 353.999 Q 243.376 354.502 243.869 355.415 L 243.869 355.415 L 243.649 357.639 L 243.649 357.639 Q 243.649 356.947 243.397 356.454 L 243.397 356.454 L 243.397 356.454 Q 243.145 355.961 242.668 355.704 L 242.668 355.704 L 242.668 355.704 Q 242.191 355.447 241.509 355.447 L 241.509 355.447 L 241.509 355.447 Q 240.449 355.447 239.867 356.107 L 239.867 356.107 L 239.867 356.107 Q 239.285 356.768 239.285 357.964 L 239.285 357.964 L 239.285 360.335 L 239.285 360.335 Q 239.285 361.52 239.867 362.166 L 239.867 362.166 L 239.867 362.166 Q 240.449 362.811 241.509 362.811 L 241.509 362.811 L 241.509 362.811 Q 242.191 362.811 242.668 362.543 L 242.668 362.543 L 242.668 362.543 Q 243.145 362.276 243.397 361.772 L 243.397 361.772 L 243.397 361.772 Q 243.649 361.269 243.649 360.566 L 243.649 360.566 L 243.796 362.863 L 243.796 362.863 Q 243.47 363.671 242.731 364.216 L 242.731 364.216 L 242.731 364.216 Q 241.991 364.762 240.911 364.762 L 240.911 364.762 Z  M 249.041 351.46 L 249.041 349.32 L 251.181 349.32 L 251.181 351.46 L 249.041 351.46 Z  M 249.041 364.573 L 249.041 353.684 L 251.181 353.684 L 251.181 364.573 L 249.041 364.573 Z  M 258.828 364.73 L 258.828 364.73 Q 257.338 364.73 256.284 364.174 L 256.284 364.174 L 256.284 364.174 Q 255.23 363.619 254.674 362.559 L 254.674 362.559 L 254.674 362.559 Q 254.118 361.499 254.118 359.999 L 254.118 359.999 L 254.118 358.206 L 254.118 358.206 Q 254.118 356.726 254.674 355.677 L 254.674 355.677 L 254.674 355.677 Q 255.23 354.628 256.284 354.078 L 256.284 354.078 L 256.284 354.078 Q 257.338 353.527 258.828 353.527 L 258.828 353.527 L 258.828 353.527 Q 259.678 353.527 260.428 353.731 L 260.428 353.731 L 260.428 353.731 Q 261.178 353.936 261.776 354.324 L 261.776 354.324 L 261.776 354.324 Q 262.374 354.712 262.772 355.268 L 262.772 355.268 L 262.772 355.268 L 261.23 356.653 L 261.23 356.653 L 261.23 356.653 Q 260.769 356.128 260.15 355.845 L 260.15 355.845 L 260.15 355.845 Q 259.531 355.562 258.86 355.562 L 258.86 355.562 L 258.86 355.562 Q 257.622 355.562 256.94 356.254 L 256.94 356.254 L 256.94 356.254 Q 256.258 356.947 256.258 358.206 L 256.258 358.206 L 256.258 359.999 L 256.258 359.999 Q 256.258 361.29 256.935 361.993 L 256.935 361.993 L 256.935 361.993 Q 257.611 362.695 258.86 362.695 L 258.86 362.695 L 258.86 362.695 Q 259.541 362.695 260.16 362.391 L 260.16 362.391 L 260.16 362.391 Q 260.779 362.087 261.23 361.531 L 261.23 361.531 L 261.23 361.531 L 262.772 363.021 L 262.772 363.021 L 262.772 363.021 Q 262.363 363.566 261.765 363.949 L 261.765 363.949 L 261.765 363.949 Q 261.167 364.332 260.417 364.531 L 260.417 364.531 L 260.417 364.531 Q 259.667 364.73 258.828 364.73 L 258.828 364.73 Z  M 270.011 364.73 L 270.011 364.73 Q 268.993 364.73 268.238 364.243 L 268.238 364.243 L 268.238 364.243 Q 267.483 363.755 267.126 362.863 L 267.126 362.863 L 267.273 360.587 L 267.273 360.587 Q 267.273 361.29 267.524 361.783 L 267.524 361.783 L 267.524 361.783 Q 267.776 362.276 268.254 362.538 L 268.254 362.538 L 268.254 362.538 Q 268.731 362.8 269.413 362.8 L 269.413 362.8 L 269.413 362.8 Q 270.472 362.8 271.054 362.155 L 271.054 362.155 L 271.054 362.155 Q 271.637 361.51 271.637 360.335 L 271.637 360.335 L 271.637 357.975 L 271.637 357.975 Q 271.637 356.779 271.054 356.118 L 271.054 356.118 L 271.054 356.118 Q 270.472 355.457 269.413 355.457 L 269.413 355.457 L 269.413 355.457 Q 268.731 355.457 268.254 355.709 L 268.254 355.709 L 268.254 355.709 Q 267.776 355.961 267.524 356.448 L 267.524 356.448 L 267.524 356.448 Q 267.273 356.936 267.273 357.618 L 267.273 357.618 L 267.052 355.52 L 267.052 355.52 Q 267.545 354.565 268.343 354.046 L 268.343 354.046 L 268.343 354.046 Q 269.14 353.527 270.116 353.527 L 270.116 353.527 L 270.116 353.527 Q 271.269 353.527 272.093 354.046 L 272.093 354.046 L 272.093 354.046 Q 272.916 354.565 273.347 355.562 L 273.347 355.562 L 273.347 355.562 Q 273.777 356.559 273.777 357.964 L 273.777 357.964 L 273.777 360.335 L 273.777 360.335 Q 273.777 361.72 273.336 362.706 L 273.336 362.706 L 273.336 362.706 Q 272.895 363.692 272.046 364.211 L 272.046 364.211 L 272.046 364.211 Q 271.196 364.73 270.011 364.73 L 270.011 364.73 Z  M 265.133 364.573 L 265.133 349.32 L 267.273 349.32 L 267.273 364.573 L 265.133 364.573 Z  M 283.123 364.573 L 283.123 353.684 L 285.253 353.684 L 285.253 364.573 L 283.123 364.573 Z  M 278.697 353.684 L 278.697 360.304 L 278.697 360.304 Q 278.697 361.447 279.279 362.071 L 279.279 362.071 L 279.279 362.071 Q 279.861 362.695 280.921 362.695 L 280.921 362.695 L 280.921 362.695 Q 281.97 362.695 282.547 362.139 L 282.547 362.139 L 282.547 362.139 Q 283.123 361.583 283.123 360.555 L 283.123 360.555 L 283.27 362.832 L 283.27 362.832 Q 282.935 363.639 282.179 364.185 L 282.179 364.185 L 282.179 364.185 Q 281.424 364.73 280.323 364.73 L 280.323 364.73 L 280.323 364.73 Q 278.518 364.73 277.537 363.571 L 277.537 363.571 L 277.537 363.571 Q 276.557 362.412 276.557 360.304 L 276.557 360.304 L 276.557 353.684 L 278.697 353.684 Z  M 288.505 364.573 L 288.505 353.684 L 290.645 353.684 L 290.645 364.573 L 288.505 364.573 Z  M 295.114 364.573 L 295.114 357.975 L 295.114 357.975 Q 295.114 356.821 294.516 356.191 L 294.516 356.191 L 294.516 356.191 Q 293.918 355.562 292.837 355.562 L 292.837 355.562 L 292.837 355.562 Q 291.788 355.562 291.217 356.118 L 291.217 356.118 L 291.217 356.118 Q 290.645 356.674 290.645 357.681 L 290.645 357.681 L 290.425 355.583 L 290.425 355.583 Q 290.928 354.597 291.741 354.062 L 291.741 354.062 L 291.741 354.062 Q 292.554 353.527 293.54 353.527 L 293.54 353.527 L 293.54 353.527 Q 295.313 353.527 296.283 354.686 L 296.283 354.686 L 296.283 354.686 Q 297.254 355.845 297.254 357.964 L 297.254 357.964 L 297.254 364.573 L 295.114 364.573 Z  M 304.901 364.73 L 304.901 364.73 Q 303.412 364.73 302.357 364.174 L 302.357 364.174 L 302.357 364.174 Q 301.303 363.619 300.747 362.559 L 300.747 362.559 L 300.747 362.559 Q 300.191 361.499 300.191 359.999 L 300.191 359.999 L 300.191 358.206 L 300.191 358.206 Q 300.191 356.726 300.747 355.677 L 300.747 355.677 L 300.747 355.677 Q 301.303 354.628 302.357 354.078 L 302.357 354.078 L 302.357 354.078 Q 303.412 353.527 304.901 353.527 L 304.901 353.527 L 304.901 353.527 Q 305.751 353.527 306.501 353.731 L 306.501 353.731 L 306.501 353.731 Q 307.251 353.936 307.849 354.324 L 307.849 354.324 L 307.849 354.324 Q 308.447 354.712 308.846 355.268 L 308.846 355.268 L 308.846 355.268 L 307.303 356.653 L 307.303 356.653 L 307.303 356.653 Q 306.842 356.128 306.223 355.845 L 306.223 355.845 L 306.223 355.845 Q 305.604 355.562 304.933 355.562 L 304.933 355.562 L 304.933 355.562 Q 303.695 355.562 303.013 356.254 L 303.013 356.254 L 303.013 356.254 Q 302.331 356.947 302.331 358.206 L 302.331 358.206 L 302.331 359.999 L 302.331 359.999 Q 302.331 361.29 303.008 361.993 L 303.008 361.993 L 303.008 361.993 Q 303.684 362.695 304.933 362.695 L 304.933 362.695 L 304.933 362.695 Q 305.615 362.695 306.233 362.391 L 306.233 362.391 L 306.233 362.391 Q 306.852 362.087 307.303 361.531 L 307.303 361.531 L 307.303 361.531 L 308.846 363.021 L 308.846 363.021 L 308.846 363.021 Q 308.436 363.566 307.838 363.949 L 307.838 363.949 L 307.838 363.949 Q 307.241 364.332 306.49 364.531 L 306.49 364.531 L 306.49 364.531 Q 305.74 364.73 304.901 364.73 L 304.901 364.73 Z  M 311.206 364.573 L 311.206 349.32 L 313.346 349.32 L 313.346 364.573 L 311.206 364.573 Z  M 317.815 364.573 L 317.815 357.975 L 317.815 357.975 Q 317.815 356.821 317.217 356.191 L 317.217 356.191 L 317.217 356.191 Q 316.619 355.562 315.538 355.562 L 315.538 355.562 L 315.538 355.562 Q 314.489 355.562 313.918 356.107 L 313.918 356.107 L 313.918 356.107 Q 313.346 356.653 313.346 357.65 L 313.346 357.65 L 313.126 355.552 L 313.126 355.552 Q 313.629 354.586 314.442 354.057 L 314.442 354.057 L 314.442 354.057 Q 315.255 353.527 316.241 353.527 L 316.241 353.527 L 316.241 353.527 Q 318.014 353.527 318.984 354.686 L 318.984 354.686 L 318.984 354.686 Q 319.955 355.845 319.955 357.964 L 319.955 357.964 L 319.955 364.573 L 317.815 364.573 Z " fill="url(#_lgradient_3)"/></g></svg>