<?xml version="1.0" encoding="UTF-8" standalone="no"?><!-- Generator: Gravit.io --><svg xmlns="http://www.w3.org/2000/svg" xmlns:xlink="http://www.w3.org/1999/xlink" style="isolation:isolate" viewBox="0 0 560 315" width="560pt" height="315pt"><path d=" M 199.054 153.155 L 199.054 136.826 L 151.803 136.826 L 151.803 153.155 L 129.865 153.155 L 129.865 88.564 L 108.771 88.564 L 108.771 63.54 L 61.52 63.54 L 61.52 88.564 L 39.582 88.564 L 39.582 189.963 C 36.401 185.747 32.99 181.731 29.366 177.937 C 29.366 177.937 29.328 177.975 29.263 178.043 L 29.263 177.937 L 29.261 178.045 C 27.522 179.836 3.866 204.562 3.866 224.155 C 3.866 243.072 13.741 250.538 26.451 251.49 L 25.529 270.15 L 28.104 270.15 L 28.389 251.585 C 28.713 251.593 29.038 251.598 29.366 251.598 C 32.825 251.644 36.27 251.129 39.582 250.069 L 39.582 274.46 L 220.148 274.46 L 220.148 153.155 L 199.054 153.155 Z " fill="rgb(242,242,242)"/><path d=" M 551 171.147 C 551 193.258 537.604 200.979 521.079 200.979 C 504.554 200.979 491.158 193.258 491.158 171.147 C 491.158 149.036 521.079 120.907 521.079 120.907 C 521.079 120.907 551 149.036 551 171.147 Z " fill="rgb(99,211,255)"/><path d=" M 519.989 197.596 L 520.295 179.091 L 533.049 156.197 L 520.343 176.188 L 520.481 167.867 L 529.27 151.304 L 520.517 165.665 L 520.517 165.666 L 520.765 150.701 L 530.177 137.514 L 520.804 148.347 L 520.959 120.906 L 519.986 157.233 L 520.066 155.735 L 510.497 141.362 L 519.913 158.611 L 519.021 175.325 L 518.994 174.881 L 507.963 159.756 L 518.961 176.448 L 518.85 178.538 L 518.83 178.57 L 518.839 178.742 L 516.577 221.145 L 519.599 221.145 L 519.962 199.243 L 530.933 182.592 L 519.989 197.596 L 519.989 197.596 Z " fill="rgb(63,61,86)"/><path d=" M 77.095 242.002 C 77.095 264.113 63.699 271.834 47.174 271.834 C 30.649 271.834 17.252 264.113 17.252 242.002 C 17.252 219.891 47.174 191.761 47.174 191.761 C 47.174 191.761 77.095 219.891 77.095 242.002 Z " fill="rgb(99,211,255)"/><path d=" M 46.657 268.451 L 46.963 249.946 L 59.716 227.053 L 47.011 247.043 L 47.149 238.723 L 55.938 222.159 L 47.185 236.521 L 47.185 236.521 L 47.433 221.556 L 56.845 208.369 L 47.472 219.202 L 47.627 191.761 L 46.654 228.088 L 46.734 226.59 L 37.165 212.217 L 46.581 229.466 L 45.689 246.18 L 45.662 245.736 L 34.631 230.612 L 45.629 247.303 L 45.518 249.393 L 45.498 249.425 L 45.507 249.597 L 43.245 292 L 46.267 292 L 46.63 270.098 L 57.601 253.447 L 46.657 268.451 L 46.657 268.451 Z " fill="rgb(63,61,86)"/><path d=" M 538.835 153.937 C 538.835 183.837 520.72 194.277 498.375 194.277 C 476.029 194.277 457.914 183.837 457.914 153.937 C 457.914 124.037 498.375 86 498.375 86 C 498.375 86 538.835 124.037 538.835 153.937 Z " fill="rgb(242,242,242)"/><path d=" M 496.901 189.703 L 497.315 164.68 L 514.56 133.722 L 497.38 160.754 L 497.566 149.503 L 509.452 127.105 L 497.615 146.525 L 497.615 146.525 L 497.951 126.289 L 510.678 108.457 L 498.003 123.107 L 498.212 86 L 496.897 135.122 L 497.005 133.096 L 484.065 113.661 L 496.798 136.986 L 495.592 159.587 L 495.556 158.987 L 480.639 138.534 L 495.511 161.106 L 495.36 163.932 L 495.333 163.975 L 495.345 164.207 L 492.287 221.547 L 496.374 221.547 L 496.864 191.93 L 511.699 169.413 L 496.901 189.703 L 496.901 189.703 Z " fill="rgb(63,61,86)"/><g opacity="0.5"><path d=" M 372.862 7.281 L 369.872 7.281 C 370.643 7.318 371.373 6.927 371.769 6.264 C 372.166 5.602 372.166 4.774 371.769 4.112 C 371.373 3.449 370.643 3.058 369.872 3.095 L 345.624 3.095 C 344.507 3.148 343.629 4.07 343.629 5.188 C 343.629 6.306 344.507 7.228 345.624 7.281 L 348.615 7.281 C 347.498 7.334 346.619 8.255 346.619 9.374 C 346.619 10.492 347.498 11.413 348.615 11.467 L 344.429 11.467 C 343.658 11.43 342.928 11.82 342.532 12.483 C 342.135 13.146 342.135 13.973 342.532 14.636 C 342.928 15.298 343.658 15.689 344.429 15.652 L 368.658 15.652 C 369.429 15.689 370.158 15.298 370.555 14.636 C 370.952 13.973 370.952 13.146 370.555 12.483 C 370.158 11.82 369.429 11.43 368.658 11.467 L 372.862 11.467 C 373.98 11.413 374.858 10.492 374.858 9.374 C 374.858 8.255 373.98 7.334 372.862 7.281 Z " fill="rgb(222,227,243)"/></g><g opacity="0.5"><path d=" M 232.758 19.49 L 230.481 19.49 C 231.071 19.523 231.631 19.226 231.935 18.72 C 232.24 18.214 232.24 17.581 231.935 17.075 C 231.631 16.569 231.071 16.272 230.481 16.305 L 212.043 16.305 C 211.197 16.351 210.535 17.05 210.535 17.897 C 210.535 18.745 211.197 19.444 212.043 19.49 L 214.32 19.49 C 213.73 19.458 213.17 19.754 212.866 20.261 C 212.561 20.767 212.561 21.4 212.866 21.906 C 213.17 22.412 213.73 22.708 214.32 22.676 L 211.134 22.676 C 210.544 22.644 209.985 22.94 209.68 23.446 C 209.375 23.952 209.375 24.585 209.68 25.092 C 209.985 25.598 210.544 25.894 211.134 25.862 L 229.572 25.862 C 230.162 25.894 230.721 25.598 231.026 25.092 C 231.33 24.585 231.33 23.952 231.026 23.446 C 230.721 22.94 230.162 22.644 229.572 22.676 L 232.758 22.676 C 233.604 22.63 234.266 21.93 234.266 21.083 C 234.266 20.236 233.604 19.537 232.758 19.49 L 232.758 19.49 Z " fill="rgb(222,227,243)"/></g><g opacity="0.5"><path d=" M 138.548 35.533 L 135.558 35.533 C 136.329 35.57 137.058 35.179 137.455 34.517 C 137.852 33.854 137.852 33.027 137.455 32.364 C 137.058 31.701 136.329 31.311 135.558 31.347 L 111.329 31.347 C 110.212 31.401 109.334 32.322 109.334 33.44 C 109.334 34.559 110.212 35.48 111.329 35.533 L 114.319 35.533 C 113.202 35.587 112.324 36.508 112.324 37.626 C 112.324 38.744 113.202 39.666 114.319 39.719 L 110.134 39.719 C 109.017 39.772 108.138 40.693 108.138 41.812 C 108.138 42.93 109.017 43.851 110.134 43.905 L 134.362 43.905 C 135.134 43.941 135.863 43.551 136.26 42.888 C 136.657 42.225 136.657 41.398 136.26 40.735 C 135.863 40.073 135.134 39.682 134.362 39.719 L 138.548 39.719 C 139.665 39.666 140.543 38.744 140.543 37.626 C 140.543 36.508 139.665 35.587 138.548 35.533 L 138.548 35.533 Z " fill="rgb(222,227,243)"/></g><g><path d=" M 461.28 279.678 C 461.165 284.109 460.447 288.501 459.146 292.725 C 459.118 292.823 459.086 292.919 459.055 293.017 L 451.093 293.017 C 451.102 292.93 451.11 292.832 451.119 292.725 C 451.65 286.418 448.617 248.49 444.958 241.926 C 445.279 242.459 461.897 259.639 461.28 279.678 Z " fill="rgb(241,241,241)"/><path d=" M 460.683 292.725 C 460.616 292.823 460.547 292.921 460.476 293.017 L 454.503 293.017 C 454.549 292.934 454.601 292.836 454.662 292.725 C 455.648 290.885 458.569 285.382 461.279 279.678 C 464.191 273.548 466.865 267.186 466.64 264.883 C 466.71 265.403 468.726 281.235 460.683 292.725 Z " fill="rgb(241,241,241)"/><path d=" M 88.032 283.111 C 88.117 286.401 88.651 289.663 89.617 292.8 C 89.638 292.873 89.662 292.945 89.685 293.017 L 95.597 293.017 C 95.591 292.952 95.585 292.879 95.579 292.8 C 95.184 288.116 97.437 259.948 100.154 255.072 C 99.916 255.468 87.574 268.227 88.032 283.111 Z " fill="rgb(241,241,241)"/><path d=" M 88.476 292.8 C 88.525 292.873 88.577 292.946 88.629 293.017 L 93.065 293.017 C 93.031 292.955 92.992 292.883 92.947 292.8 C 92.215 291.433 90.046 287.347 88.032 283.111 C 85.87 278.558 83.884 273.833 84.051 272.123 C 83.999 272.508 82.502 284.267 88.476 292.8 Z " fill="rgb(241,241,241)"/><path d=" M 376.892 220.556 C 332.236 200.997 291.835 201.74 253.78 213.678 C 195.146 203.095 154.996 204.733 129.242 220.556 L 129.242 171.43 L 376.892 171.43 L 376.892 220.556 Z " fill="rgb(203,203,203)"/><path d=" M 376.892 207.046 C 335.751 187.78 294.659 186.537 252.948 207.046 C 210.226 194.333 168.926 194.466 129.005 207.046 L 129.005 57.702 C 171.449 44.61 212.737 44.924 252.948 57.702 C 295.425 44.969 336.777 44.565 376.892 57.702 L 376.892 207.046 Z " fill="rgb(229,229,229)"/><path d=" M 140.154 76.236 L 138.77 72.575 C 139.312 72.356 152.273 67.178 171.294 64.536 C 188.88 62.094 215.08 61.51 240.034 72.6 L 238.532 76.211 C 214.412 65.492 188.987 66.057 171.904 68.417 C 153.31 70.987 140.283 76.184 140.154 76.236 Z " fill="rgb(255,255,255)"/><path d=" M 140.154 89.991 L 138.77 86.33 C 139.312 86.111 152.273 80.933 171.294 78.292 C 188.88 75.849 215.08 75.266 240.034 86.355 L 238.532 89.966 C 214.412 79.247 188.987 79.811 171.904 82.172 C 153.31 84.742 140.283 89.939 140.154 89.991 Z " fill="rgb(255,255,255)"/><path d=" M 140.154 103.747 L 138.77 100.086 C 139.312 99.867 152.273 94.688 171.294 92.047 C 188.88 89.604 215.08 89.021 240.034 100.111 L 238.532 103.721 C 214.412 93.003 188.987 93.567 171.904 95.928 C 153.31 98.497 140.283 103.694 140.154 103.747 Z " fill="rgb(255,255,255)"/><path d=" M 140.154 117.502 L 138.77 113.841 C 139.312 113.622 152.273 108.444 171.294 105.802 C 188.88 103.36 215.08 102.776 240.034 113.866 L 238.532 117.477 C 214.412 106.758 188.987 107.322 171.904 109.683 C 153.31 112.253 140.283 117.45 140.154 117.502 Z " fill="rgb(255,255,255)"/><path d=" M 140.154 131.257 L 138.77 127.597 C 139.312 127.378 152.273 122.199 171.294 119.558 C 188.88 117.115 215.08 116.532 240.034 127.622 L 238.532 131.232 C 214.412 120.513 188.987 121.078 171.904 123.438 C 153.31 126.008 140.283 131.205 140.154 131.257 Z " fill="rgb(255,255,255)"/><path d=" M 140.154 145.013 L 138.77 141.352 C 139.312 141.133 152.273 135.955 171.294 133.313 C 188.88 130.871 215.08 130.287 240.034 141.377 L 238.532 144.988 C 214.412 134.269 188.987 134.833 171.904 137.194 C 153.31 139.764 140.283 144.96 140.154 145.013 Z " fill="rgb(255,255,255)"/><path d=" M 264.216 173.997 L 262.832 170.336 C 263.375 170.117 276.336 164.939 295.357 162.298 C 312.942 159.855 339.143 159.272 364.096 170.361 L 362.594 173.972 C 338.475 163.253 313.049 163.818 295.967 166.178 C 277.373 168.748 264.346 173.945 264.216 173.997 Z " fill="rgb(99,211,255)"/><path d=" M 263.049 147.598 L 263.049 72.469 L 264.384 72.039 C 298.201 61.121 331.854 61.123 364.408 72.045 L 365.722 72.486 L 365.722 147.498 L 363.149 146.494 C 329.272 133.28 296.479 133.272 265.679 146.471 L 263.049 147.598 Z  M 313.227 132.639 Q 337.102 132.639 361.919 141.838 L 361.919 75.349 C 330.968 65.261 298.996 65.266 266.852 75.365 L 266.852 141.747 C 281.621 135.733 297.353 132.643 313.227 132.639 Z " fill="rgb(255,255,255)"/><path d=" M 361.998 172.051 L 362.496 159.547 L 379.583 124.437 C 380.065 123.439 380.85 122.632 381.819 122.14 C 383.017 121.522 384.405 121.428 385.671 121.88 C 387.142 122.404 388.292 123.608 388.78 125.136 C 388.883 125.461 388.955 125.796 388.996 126.136 C 389.117 127.144 388.945 128.166 388.5 129.073 L 371.391 164.23 L 361.998 172.051 Z " fill="rgb(99,211,255)"/><path d=" M 383.947 121.844 L 365.399 159.957 L 363.985 159.221 L 381.924 122.36 C 382.553 122.035 383.244 121.859 383.947 121.844 Z " fill="rgb(63,61,86)"/><path d=" M 388.76 126.167 L 370.92 162.826 L 369.506 162.091 L 388.014 124.058 C 388.242 124.417 388.424 124.805 388.554 125.213 C 388.652 125.523 388.721 125.842 388.76 126.167 Z " fill="rgb(63,61,86)"/><path d=" M 386.984 122.895 L 368.232 161.429 L 366.817 160.694 L 385.593 122.112 C 385.793 122.183 385.989 122.268 386.177 122.366 C 386.462 122.515 386.733 122.692 386.984 122.895 Z " fill="rgb(63,61,86)"/><path d=" M 364.143 169.95 L 362.256 171.52 L 362.415 167.379 C 363.062 167.612 363.764 168.62 364.143 169.95 Z " fill="rgb(63,61,86)"/><path d=" M 178.025 215.08 L 175.766 207.999 L 178.172 184.712 C 178.238 184.051 178.513 183.431 178.953 182.946 C 179.496 182.342 180.252 181.989 181.049 181.966 C 181.976 181.94 182.862 182.363 183.444 183.109 C 183.567 183.268 183.675 183.439 183.767 183.62 C 184.039 184.156 184.151 184.763 184.087 185.365 L 181.677 208.683 L 178.025 215.08 Z " fill="rgb(99,211,255)"/><path d=" M 180.08 182.32 L 177.468 207.598 L 176.53 207.494 L 179.057 183.046 C 179.341 182.729 179.691 182.481 180.08 182.32 Z " fill="rgb(63,61,86)"/><path d=" M 183.642 183.688 L 181.129 208.002 L 180.191 207.898 L 182.798 182.673 C 182.998 182.824 183.178 183.001 183.333 183.201 C 183.451 183.352 183.554 183.516 183.642 183.688 L 183.642 183.688 Z " fill="rgb(63,61,86)"/><path d=" M 181.988 182.248 L 179.346 207.805 L 178.408 207.702 L 181.053 182.113 C 181.179 182.109 181.305 182.114 181.43 182.128 C 181.619 182.149 181.806 182.189 181.988 182.248 Z " fill="rgb(63,61,86)"/><path d=" M 178.795 213.444 L 178.061 214.729 L 177.309 212.385 C 177.718 212.374 178.313 212.784 178.795 213.444 Z " fill="rgb(63,61,86)"/><g><path d=" M 422.711 206.776 C 422.011 208.041 420.711 208.824 419.301 208.831 C 417.89 208.837 416.584 208.065 415.874 206.805 C 415.163 205.546 415.157 203.991 415.857 202.725 Q 415.87 202.701 415.884 202.678 C 415.994 202.487 416.118 202.304 416.256 202.133 L 412.935 177.67 L 412.835 176.937 L 412.161 171.945 L 412.061 171.226 L 412.429 171.244 L 418.863 171.547 L 420.588 171.628 L 420.804 176.182 L 422.028 201.784 C 423.344 203.085 423.626 205.148 422.711 206.776 L 422.711 206.776 Z " fill="rgb(255,184,184)"/><path d=" M 412.854 177.159 L 421.024 176.384 C 421.907 176.298 422.556 175.492 422.479 174.58 L 420.966 157.021 C 420.661 153.499 417.652 150.899 414.245 151.213 C 410.837 151.528 408.321 154.638 408.626 158.159 Q 408.641 158.341 408.667 158.521 L 411.117 175.744 C 411.233 176.56 411.91 177.164 412.707 177.166 C 412.756 177.167 412.805 177.164 412.854 177.159 Z " fill="rgb(203,203,203)"/><path d=" M 419.047 162.973 C 420.745 158.002 419.035 152.47 414.862 149.437 C 411.781 147.259 407.565 146.477 403.025 152.063 C 397.531 158.883 393.612 166.906 391.566 175.525 L 410.16 178.653 C 410.16 178.653 416.483 170.665 419.047 162.973 Z " fill="rgb(203,203,203)"/><path d=" M 388.975 288.82 L 383.674 288.82 L 381.152 267.687 L 388.976 267.687 L 388.975 288.82 Z " fill="rgb(255,184,184)"/><path d=" M 373.451 293.907 L 390.112 293.907 L 390.112 287.254 L 379.888 287.254 C 378.181 287.254 376.544 287.955 375.337 289.203 C 374.129 290.45 373.451 292.142 373.451 293.907 L 373.451 293.907 Z " fill="rgb(47,46,65)"/><path d=" M 432.558 284.041 L 427.525 285.761 L 418.713 266.514 L 426.142 263.976 L 432.558 284.041 Z " fill="rgb(255,184,184)"/><path d=" M 419.363 293.907 L 435.182 288.503 L 433.162 282.186 L 423.455 285.502 C 420.079 286.655 418.247 290.418 419.363 293.907 L 419.363 293.907 Z " fill="rgb(47,46,65)"/><ellipse vector-effect="non-scaling-stroke" cx="407.3752911210761" cy="132.92039649278837" rx="10.620230313901345" ry="10.97607589081258" fill="rgb(255,184,184)"/><path d=" M 398.076 282.937 L 402.999 249.356 C 403.108 248.617 403.707 248.06 404.43 248.028 C 405.152 247.995 405.796 248.495 405.967 249.222 L 413.464 281.225 C 413.708 282.241 414.662 282.897 415.664 282.737 L 436.343 279.303 C 436.898 279.21 437.387 278.875 437.685 278.383 C 437.983 277.89 438.06 277.289 437.897 276.733 L 410.932 184.852 C 410.855 184.591 410.846 184.314 410.905 184.048 L 411.803 180.026 C 412.006 179.129 411.591 178.204 410.797 177.785 C 407.125 175.849 397.825 171.823 390.807 176.233 C 390.346 176.523 390.021 176.996 389.908 177.541 L 368.843 279.865 C 368.727 280.428 368.85 281.015 369.18 281.478 C 369.511 281.941 370.018 282.235 370.572 282.287 L 395.979 284.638 Q 396.065 284.646 396.152 284.646 C 397.113 284.645 397.93 283.919 398.075 282.937 L 398.076 282.937 Z " fill="rgb(47,46,65)"/><path d=" M 414.417 125.166 C 413.617 124.668 412.906 124.03 412.318 123.28 C 411.727 122.509 411.568 121.476 411.899 120.554 C 412.435 119.33 414.03 118.945 415.265 119.36 C 416.501 119.775 417.455 120.778 418.358 121.743 C 419.153 122.592 419.972 123.483 420.347 124.599 C 420.723 125.716 420.531 127.132 419.592 127.81 C 418.671 128.475 417.347 128.203 416.462 127.489 C 415.626 126.708 414.959 125.753 414.505 124.687 L 414.417 125.166 Z " fill="rgb(47,46,65)"/><path d=" M 418.015 122.038 C 418.073 118.946 421.484 116.728 424.43 117.276 C 427.376 117.824 429.64 120.42 430.773 123.283 C 433.168 129.331 431.371 136.233 429.063 142.32 C 426.756 148.407 423.9 154.583 424.237 161.109 C 424.701 168.295 428.936 174.641 435.27 177.644 C 431.946 179.201 427.972 177.592 425.178 175.165 C 418.974 169.773 416.579 160.173 419.487 152.353 C 420.922 148.496 423.449 145.196 425.423 141.603 C 427.396 138.01 428.844 133.774 427.825 129.779 C 426.806 125.783 422.47 122.549 418.763 124.094 L 418.015 122.038 Z " fill="rgb(47,46,65)"/><path d=" M 406.738 137.791 C 407.664 136.174 408.598 134.051 406.906 132.638 C 406.163 132.045 405.22 131.788 404.29 131.923 C 402.382 132.161 400.305 132.259 398.458 131.542 C 397.059 131.045 395.914 129.982 395.286 128.597 C 394.335 126.262 395.527 123.425 397.52 121.95 C 400.013 120.171 403.294 120.111 405.847 121.797 C 408.428 120.619 411.56 121.143 413.905 122.765 C 416.251 124.387 417.855 126.985 418.727 129.759 C 419.53 132.147 419.669 134.719 419.126 137.184 C 418.241 140.664 415.769 143.479 412.504 144.727 C 411.228 145.247 409.781 145.026 408.706 144.146 C 407.848 143.35 407.188 142.352 406.785 141.235 C 406.432 140.012 406.244 138.655 406.738 137.791 Z " fill="rgb(47,46,65)"/><path d=" M 375.233 147.585 C 375.286 147.826 375.32 148.071 375.336 148.318 L 393.911 159.393 L 398.425 156.707 L 403.239 163.219 L 395.693 168.777 C 394.441 169.7 392.749 169.657 391.542 168.673 L 372.387 153.056 C 370.616 153.733 368.625 153.208 367.385 151.736 C 366.145 150.265 365.916 148.154 366.81 146.435 C 367.703 144.716 369.533 143.748 371.405 144.003 C 373.276 144.259 374.799 145.685 375.23 147.585 L 375.233 147.585 Z " fill="rgb(255,184,184)"/><path d=" M 394.532 159.918 L 400.536 167.959 C 400.881 168.421 401.404 168.705 401.969 168.737 C 402.533 168.769 403.083 168.546 403.476 168.126 L 410.272 160.832 C 411.827 159.643 412.649 157.685 412.426 155.699 C 412.204 153.712 410.971 152.001 409.194 151.21 C 407.417 150.42 405.367 150.671 403.818 151.869 Q 403.73 151.937 403.645 152.008 L 395.121 156.934 C 394.627 157.22 394.278 157.713 394.165 158.286 C 394.052 158.859 394.185 159.455 394.531 159.918 L 394.532 159.918 Z " fill="rgb(203,203,203)"/></g><path d=" M 165.132 288.134 L 170.895 288.133 L 173.637 265.161 L 165.131 265.162 L 165.132 288.134 L 165.132 288.134 Z " fill="rgb(160,97,106)"/><path d=" M 163.662 286.189 L 175.011 286.189 L 175.012 286.189 C 179.006 286.189 182.244 289.535 182.244 293.663 L 182.244 293.906 L 163.663 293.907 L 163.662 286.189 Z " fill="rgb(47,46,65)"/><path d=" M 120.262 285.556 L 125.96 286.446 L 131.994 264.155 L 124.524 262.842 L 120.262 285.556 L 120.262 285.556 Z " fill="rgb(160,97,106)"/><path d=" M 119.09 283.406 L 130.311 285.159 L 130.312 285.159 C 134.261 285.776 136.979 289.585 136.382 293.667 L 136.347 293.907 L 117.974 291.037 L 119.09 283.406 Z " fill="rgb(47,46,65)"/><path d=" M 138.03 174.289 L 144.429 176.022 L 144.003 186.743 L 143.95 206.263 C 145.241 207.185 145.847 208.835 145.474 210.41 C 145.1 211.985 143.826 213.159 142.269 213.362 C 140.712 213.564 139.196 212.752 138.457 211.321 C 137.719 209.891 137.911 208.137 138.941 206.913 L 136.975 187.322 L 138.03 174.289 Z " fill="rgb(160,97,106)"/><path d=" M 136.916 162.009 C 136.988 159.893 138.251 158.016 140.145 157.208 C 141.919 156.388 143.995 156.733 145.431 158.087 C 146.453 159.031 147.021 160.392 146.983 161.808 C 147 168.089 145.628 177.244 145.614 177.335 L 145.592 177.481 L 136.24 180.736 L 136.916 162.009 Z " fill="rgb(203,203,203)"/><path d=" M 153.639 179.838 L 167.943 176.011 L 174.556 199.026 L 174.791 284.769 L 163.852 284.698 L 159.279 215.3 L 130.137 279.425 L 118.386 277.968 L 144.003 209.228 C 144.003 209.228 142.593 197.083 147.058 191.011 L 146.118 184.695 L 153.639 179.838 Z " fill="rgb(47,46,65)"/><path d=" M 143.993 185.564 C 143.589 185.055 143.418 184.39 143.526 183.742 L 137.001 163.511 C 136.379 161.579 136.917 159.449 138.374 158.079 L 141.207 155.418 L 143.127 147.482 L 154.159 150.269 L 153.25 154.027 L 158.243 153.089 L 168.76 177.297 L 146.777 186.378 L 145.695 186.396 C 145.035 186.397 144.41 186.091 143.993 185.564 L 143.993 185.564 Z " fill="rgb(203,203,203)"/><path d=" M 159.306 168.483 L 165.61 166.412 L 170.795 175.708 L 180.847 192.235 C 182.414 192.301 183.78 193.361 184.279 194.898 C 184.779 196.436 184.308 198.132 183.097 199.163 C 181.886 200.194 180.185 200.346 178.821 199.544 C 177.456 198.743 176.712 197.155 176.949 195.552 L 165.155 180.08 L 159.306 168.483 Z " fill="rgb(160,97,106)"/><path d=" M 152.014 158.719 C 150.98 156.891 151.076 154.607 152.26 152.879 C 153.335 151.206 155.268 150.351 157.181 150.701 C 158.533 150.934 159.717 151.771 160.418 152.989 C 163.68 158.287 167.256 166.782 167.291 166.867 L 167.348 167.003 L 161.127 174.92 L 152.014 158.719 Z " fill="rgb(203,203,203)"/><ellipse vector-effect="non-scaling-stroke" cx="151.2891971300446" cy="136.94608657541892" rx="8.765786457399088" ry="9.05949631554887" fill="rgb(160,97,106)"/><ellipse vector-effect="non-scaling-stroke" cx="135.79814322869953" cy="124.39808166872135" rx="8.44368430493273" ry="8.726601682799043" fill="rgb(47,46,65)"/><path d=" M 128.515 131.624 C 130.733 133.281 133.589 133.724 136.18 132.814 C 138.77 131.903 140.773 129.752 141.554 127.042 C 141.157 130.306 139.018 133.061 136.022 134.17 C 133.026 135.278 129.681 134.552 127.37 132.29 C 125.059 130.028 124.175 126.616 125.083 123.463 C 124.698 126.628 126.014 129.757 128.515 131.624 L 128.515 131.624 Z " fill="rgb(47,46,65)"/><path d=" M 161.838 131.634 C 160.363 128.907 159.799 127.767 157.899 126.109 C 156.218 124.642 154.151 124.211 152.483 125.601 C 148.433 123.792 143.713 124.946 140.876 128.438 C 138.038 131.93 137.754 136.933 140.178 140.744 C 142.602 144.555 147.158 146.27 151.386 144.962 C 155.613 143.655 158.509 139.635 158.509 135.074 C 158.507 134.684 158.484 134.295 158.441 133.907 C 159.89 133.697 160.388 131.844 161.838 131.634 Z " fill="rgb(47,46,65)"/><path d=" M 247.578 294 L 66.475 294 C 66.213 294 66 293.78 66 293.509 C 66 293.237 66.213 293.017 66.475 293.017 L 247.578 293.017 C 247.841 293.017 248.054 293.237 248.054 293.509 C 248.054 293.78 247.841 294 247.578 294 Z " fill="rgb(203,203,203)"/><path d=" M 489.525 294 L 308.422 294 C 308.159 294 307.946 293.78 307.946 293.509 C 307.946 293.237 308.159 293.017 308.422 293.017 L 489.525 293.017 C 489.787 293.017 490 293.237 490 293.509 C 490 293.78 489.787 294 489.525 294 Z " fill="rgb(203,203,203)"/><rect x="252.473" y="57.702" width="0.951" height="148.871" transform="matrix(1,0,0,1,0,0)" fill="rgb(203,203,203)"/></g><g><path d=" M 626.525 225 C 579.506 211.674 519.158 211.694 445.422 225 C 445.159 225 444.946 224.78 444.946 224.509 C 444.946 224.237 445.159 224.017 445.422 224.017 L 626.525 224.017 C 626.787 224.017 627 224.237 627 224.509 C 627 224.78 626.787 225 626.525 225 Z " fill="rgb(203,203,203)"/><path d=" M 461.28 279.678 C 461.165 284.109 460.447 288.501 459.146 292.725 C 459.118 292.823 459.086 292.919 459.055 293.017 L 451.093 293.017 C 451.102 292.93 451.11 292.832 451.119 292.725 C 451.65 286.418 448.617 248.49 444.958 241.926 C 445.279 242.459 461.897 259.639 461.28 279.678 Z " fill="rgb(241,241,241)"/><path d=" M 460.683 292.725 C 460.616 292.823 460.547 292.921 460.476 293.017 L 454.503 293.017 C 454.549 292.934 454.601 292.836 454.662 292.725 C 455.648 290.885 458.569 285.382 461.279 279.678 C 464.191 273.548 466.865 267.186 466.64 264.883 C 466.71 265.403 468.726 281.235 460.683 292.725 Z " fill="rgb(241,241,241)"/><path d=" M 88.032 283.111 C 88.117 286.401 88.651 289.663 89.617 292.8 C 89.638 292.873 89.662 292.945 89.685 293.017 L 95.597 293.017 C 95.591 292.952 95.585 292.879 95.579 292.8 C 95.184 288.116 97.437 259.948 100.154 255.072 C 99.916 255.468 87.574 268.227 88.032 283.111 Z " fill="rgb(241,241,241)"/><path d=" M 88.476 292.8 C 88.525 292.873 88.577 292.946 88.629 293.017 L 93.065 293.017 C 93.031 292.955 92.992 292.883 92.947 292.8 C 92.215 291.433 90.046 287.347 88.032 283.111 C 85.87 278.558 83.884 273.833 84.051 272.123 C 83.999 272.508 82.502 284.267 88.476 292.8 Z " fill="rgb(241,241,241)"/><path d=" M 376.892 220.556 C 332.236 200.997 291.835 201.74 253.78 213.678 C 195.146 203.095 154.996 204.733 129.242 220.556 L 129.242 171.43 L 376.892 171.43 L 376.892 220.556 Z " fill="rgb(203,203,203)"/><path d=" M 376.892 207.046 C 335.751 187.78 294.659 186.537 252.948 207.046 C 210.226 194.333 168.926 194.466 129.005 207.046 L 129.005 57.702 C 171.449 44.61 212.737 44.924 252.948 57.702 C 295.425 44.969 336.777 44.565 376.892 57.702 L 376.892 207.046 Z " fill="rgb(229,229,229)"/><path d=" M 140.154 76.236 L 138.77 72.575 C 139.312 72.356 152.273 67.178 171.294 64.536 C 188.88 62.094 215.08 61.51 240.034 72.6 L 238.532 76.211 C 214.412 65.492 188.987 66.057 171.904 68.417 C 153.31 70.987 140.283 76.184 140.154 76.236 Z " fill="rgb(255,255,255)"/><path d=" M 140.154 89.991 L 138.77 86.331 C 139.312 86.112 152.273 80.933 171.294 78.292 C 188.88 75.849 215.08 75.266 240.034 86.355 L 238.532 89.966 C 214.412 79.247 188.987 79.811 171.904 82.172 C 153.31 84.742 140.283 89.939 140.154 89.991 Z " fill="rgb(255,255,255)"/><path d=" M 140.154 103.747 L 138.77 100.086 C 139.312 99.867 152.273 94.688 171.294 92.047 C 188.88 89.604 215.08 89.021 240.034 100.111 L 238.532 103.721 C 214.412 93.003 188.987 93.567 171.904 95.928 C 153.31 98.497 140.283 103.694 140.154 103.747 Z " fill="rgb(255,255,255)"/><path d=" M 140.154 117.502 L 138.77 113.841 C 139.312 113.622 152.273 108.444 171.294 105.802 C 188.88 103.36 215.08 102.776 240.034 113.866 L 238.532 117.477 C 214.412 106.758 188.987 107.322 171.904 109.683 C 153.31 112.253 140.283 117.45 140.154 117.502 Z " fill="rgb(255,255,255)"/><path d=" M 140.154 131.257 L 138.77 127.597 C 139.312 127.378 152.273 122.199 171.294 119.558 C 188.88 117.115 215.08 116.532 240.034 127.622 L 238.532 131.232 C 214.412 120.513 188.987 121.078 171.904 123.438 C 153.31 126.008 140.283 131.205 140.154 131.257 Z " fill="rgb(255,255,255)"/><path d=" M 140.154 145.013 L 138.77 141.352 C 139.312 141.133 152.273 135.955 171.294 133.313 C 188.88 130.871 215.08 130.287 240.034 141.377 L 238.532 144.988 C 214.412 134.269 188.987 134.833 171.904 137.194 C 153.31 139.764 140.283 144.96 140.154 145.013 Z " fill="rgb(255,255,255)"/><path d=" M 264.216 173.997 L 262.832 170.337 C 263.375 170.117 276.336 164.939 295.357 162.298 C 312.942 159.855 339.143 159.272 364.096 170.361 L 362.594 173.972 C 338.475 163.253 313.049 163.818 295.967 166.178 C 277.373 168.748 264.346 173.945 264.216 173.997 Z " fill="rgb(99,211,255)"/><path d=" M 263.049 147.598 L 263.049 72.469 L 264.384 72.039 C 298.201 61.121 331.854 61.123 364.408 72.045 L 365.722 72.486 L 365.722 147.498 L 363.149 146.494 C 329.272 133.28 296.479 133.272 265.679 146.471 L 263.049 147.598 Z  M 313.227 132.639 Q 337.102 132.639 361.919 141.838 L 361.919 75.349 C 330.968 65.261 298.996 65.266 266.852 75.365 L 266.852 141.747 C 281.621 135.733 297.353 132.643 313.227 132.639 Z " fill="rgb(255,255,255)"/><path d=" M 361.998 172.051 L 362.496 159.547 L 379.583 124.437 C 380.065 123.439 380.85 122.632 381.819 122.14 C 383.017 121.522 384.405 121.428 385.671 121.88 C 387.142 122.404 388.292 123.608 388.78 125.136 C 388.883 125.461 388.955 125.796 388.996 126.136 C 389.117 127.144 388.945 128.166 388.5 129.073 L 371.391 164.23 L 361.998 172.051 Z " fill="rgb(99,211,255)"/><path d=" M 383.947 121.844 L 365.399 159.957 L 363.985 159.221 L 381.924 122.36 C 382.553 122.035 383.244 121.859 383.947 121.844 Z " fill="rgb(63,61,86)"/><path d=" M 388.76 126.167 L 370.92 162.826 L 369.505 162.091 L 388.014 124.058 C 388.242 124.417 388.424 124.805 388.554 125.213 C 388.652 125.523 388.721 125.842 388.76 126.167 Z " fill="rgb(63,61,86)"/><path d=" M 386.984 122.895 L 368.232 161.429 L 366.817 160.694 L 385.593 122.112 C 385.793 122.183 385.989 122.268 386.177 122.366 C 386.462 122.515 386.733 122.692 386.984 122.895 Z " fill="rgb(63,61,86)"/><path d=" M 364.143 169.95 L 362.256 171.52 L 362.414 167.379 C 363.062 167.612 363.764 168.62 364.143 169.95 Z " fill="rgb(63,61,86)"/><path d=" M 178.025 215.08 L 175.766 207.999 L 178.172 184.712 C 178.238 184.051 178.513 183.431 178.953 182.946 C 179.496 182.342 180.252 181.989 181.049 181.966 C 181.976 181.94 182.862 182.363 183.444 183.109 C 183.567 183.268 183.675 183.439 183.767 183.62 C 184.039 184.156 184.151 184.763 184.087 185.365 L 181.677 208.683 L 178.025 215.08 Z " fill="rgb(99,211,255)"/><path d=" M 180.08 182.32 L 177.468 207.598 L 176.53 207.494 L 179.056 183.046 C 179.341 182.729 179.691 182.481 180.08 182.32 Z " fill="rgb(63,61,86)"/><path d=" M 183.642 183.688 L 181.129 208.002 L 180.191 207.898 L 182.798 182.673 C 182.998 182.824 183.178 183.001 183.333 183.201 C 183.451 183.352 183.554 183.516 183.642 183.688 L 183.642 183.688 Z " fill="rgb(63,61,86)"/><path d=" M 181.988 182.248 L 179.346 207.805 L 178.408 207.702 L 181.053 182.113 C 181.179 182.109 181.305 182.114 181.43 182.128 C 181.619 182.149 181.806 182.189 181.988 182.248 Z " fill="rgb(63,61,86)"/><path d=" M 178.795 213.444 L 178.061 214.729 L 177.309 212.385 C 177.718 212.374 178.313 212.784 178.795 213.444 Z " fill="rgb(63,61,86)"/><g><path d=" M 422.711 206.776 C 422.011 208.041 420.711 208.824 419.301 208.831 C 417.89 208.837 416.584 208.065 415.873 206.805 C 415.163 205.546 415.157 203.991 415.857 202.725 Q 415.87 202.701 415.884 202.678 C 415.994 202.487 416.118 202.304 416.256 202.133 L 412.935 177.67 L 412.835 176.937 L 412.161 171.945 L 412.061 171.226 L 412.429 171.243 L 418.863 171.547 L 420.588 171.628 L 420.804 176.182 L 422.028 201.784 C 423.344 203.085 423.626 205.148 422.711 206.776 L 422.711 206.776 Z " fill="rgb(255,184,184)"/><path d=" M 412.854 177.159 L 421.025 176.384 C 421.907 176.298 422.556 175.492 422.479 174.58 L 420.966 157.021 C 420.661 153.499 417.652 150.899 414.245 151.213 C 410.837 151.528 408.321 154.638 408.626 158.159 Q 408.641 158.341 408.667 158.521 L 411.117 175.744 C 411.233 176.56 411.91 177.164 412.707 177.166 C 412.756 177.167 412.805 177.164 412.854 177.159 Z " fill="rgb(203,203,203)"/><path d=" M 419.047 162.973 C 420.745 158.002 419.035 152.47 414.862 149.437 C 411.781 147.259 407.565 146.477 403.025 152.063 C 397.531 158.883 393.612 166.906 391.566 175.525 L 410.16 178.653 C 410.16 178.653 416.483 170.665 419.047 162.973 Z " fill="rgb(203,203,203)"/><path d=" M 388.975 288.82 L 383.674 288.82 L 381.152 267.687 L 388.976 267.687 L 388.975 288.82 Z " fill="rgb(255,184,184)"/><path d=" M 373.451 293.907 L 390.112 293.907 L 390.112 287.254 L 379.888 287.254 C 378.181 287.254 376.544 287.955 375.337 289.203 C 374.129 290.45 373.451 292.142 373.451 293.907 L 373.451 293.907 Z " fill="rgb(47,46,65)"/><path d=" M 432.558 284.041 L 427.525 285.761 L 418.713 266.514 L 426.142 263.976 L 432.558 284.041 Z " fill="rgb(255,184,184)"/><path d=" M 419.363 293.907 L 435.182 288.503 L 433.162 282.186 L 423.455 285.502 C 420.079 286.655 418.247 290.418 419.363 293.907 L 419.363 293.907 Z " fill="rgb(47,46,65)"/><ellipse vector-effect="non-scaling-stroke" cx="407.3752911210761" cy="132.92039649278837" rx="10.620230313901345" ry="10.97607589081258" fill="rgb(255,184,184)"/><path d=" M 398.076 282.937 L 402.999 249.356 C 403.108 248.617 403.707 248.06 404.43 248.028 C 405.152 247.995 405.796 248.495 405.967 249.222 L 413.464 281.225 C 413.708 282.241 414.662 282.897 415.664 282.737 L 436.343 279.303 C 436.898 279.21 437.387 278.875 437.685 278.383 C 437.983 277.89 438.06 277.289 437.897 276.733 L 410.932 184.852 C 410.855 184.591 410.846 184.314 410.905 184.048 L 411.803 180.026 C 412.006 179.129 411.591 178.204 410.797 177.785 C 407.125 175.849 397.825 171.823 390.807 176.233 C 390.346 176.523 390.021 176.996 389.908 177.541 L 368.843 279.865 C 368.727 280.428 368.85 281.015 369.18 281.478 C 369.511 281.941 370.018 282.235 370.572 282.287 L 395.979 284.638 Q 396.065 284.646 396.152 284.646 C 397.113 284.645 397.93 283.919 398.075 282.937 L 398.076 282.937 Z " fill="rgb(47,46,65)"/><path d=" M 414.417 125.166 C 413.617 124.668 412.906 124.03 412.318 123.28 C 411.727 122.509 411.568 121.476 411.899 120.554 C 412.435 119.33 414.03 118.945 415.265 119.36 C 416.501 119.775 417.455 120.778 418.358 121.743 C 419.154 122.592 419.972 123.483 420.347 124.599 C 420.723 125.716 420.531 127.132 419.592 127.81 C 418.671 128.475 417.347 128.203 416.462 127.489 C 415.626 126.708 414.959 125.753 414.505 124.687 L 414.417 125.166 Z " fill="rgb(47,46,65)"/><path d=" M 418.015 122.038 C 418.073 118.946 421.484 116.728 424.43 117.276 C 427.376 117.824 429.64 120.42 430.773 123.283 C 433.168 129.331 431.371 136.233 429.063 142.32 C 426.756 148.407 423.9 154.583 424.237 161.109 C 424.701 168.295 428.936 174.641 435.27 177.644 C 431.946 179.201 427.972 177.592 425.178 175.165 C 418.974 169.773 416.579 160.173 419.487 152.353 C 420.922 148.496 423.449 145.196 425.423 141.603 C 427.396 138.01 428.844 133.774 427.825 129.779 C 426.806 125.783 422.47 122.549 418.763 124.094 L 418.015 122.038 Z " fill="rgb(47,46,65)"/><path d=" M 406.738 137.791 C 407.664 136.174 408.598 134.051 406.906 132.638 C 406.163 132.045 405.22 131.788 404.29 131.923 C 402.382 132.161 400.305 132.259 398.458 131.542 C 397.059 131.045 395.914 129.982 395.286 128.597 C 394.335 126.262 395.527 123.425 397.52 121.95 C 400.013 120.171 403.294 120.111 405.847 121.797 C 408.428 120.619 411.56 121.143 413.905 122.765 C 416.251 124.387 417.855 126.985 418.727 129.759 C 419.53 132.147 419.669 134.719 419.126 137.184 C 418.241 140.664 415.769 143.479 412.504 144.727 C 411.228 145.247 409.781 145.026 408.706 144.146 C 407.848 143.35 407.188 142.352 406.785 141.235 C 406.432 140.012 406.244 138.655 406.738 137.791 Z " fill="rgb(47,46,65)"/><path d=" M 375.233 147.585 C 375.286 147.826 375.32 148.071 375.336 148.318 L 393.911 159.393 L 398.425 156.707 L 403.239 163.219 L 395.693 168.777 C 394.441 169.7 392.749 169.657 391.542 168.673 L 372.387 153.056 C 370.616 153.733 368.625 153.208 367.385 151.736 C 366.145 150.265 365.916 148.154 366.81 146.435 C 367.703 144.716 369.533 143.748 371.405 144.003 C 373.276 144.259 374.799 145.685 375.23 147.585 L 375.233 147.585 Z " fill="rgb(255,184,184)"/><path d=" M 394.532 159.918 L 400.536 167.959 C 400.881 168.421 401.404 168.705 401.969 168.737 C 402.533 168.769 403.083 168.546 403.476 168.126 L 410.272 160.832 C 411.827 159.643 412.649 157.685 412.426 155.699 C 412.204 153.712 410.971 152.001 409.194 151.21 C 407.417 150.42 405.367 150.671 403.818 151.869 Q 403.73 151.937 403.645 152.008 L 395.121 156.934 C 394.627 157.22 394.278 157.713 394.165 158.286 C 394.052 158.859 394.185 159.455 394.531 159.918 L 394.532 159.918 Z " fill="rgb(203,203,203)"/></g><path d=" M 165.132 288.134 L 170.895 288.133 L 173.637 265.161 L 165.131 265.162 L 165.132 288.134 L 165.132 288.134 Z " fill="rgb(160,97,106)"/><path d=" M 163.662 286.189 L 175.011 286.189 L 175.012 286.189 C 179.006 286.189 182.244 289.535 182.244 293.663 L 182.244 293.906 L 163.663 293.907 L 163.662 286.189 Z " fill="rgb(47,46,65)"/><path d=" M 120.262 285.556 L 125.96 286.446 L 131.994 264.155 L 124.524 262.842 L 120.262 285.556 L 120.262 285.556 Z " fill="rgb(160,97,106)"/><path d=" M 119.09 283.406 L 130.311 285.159 L 130.312 285.159 C 134.261 285.776 136.979 289.585 136.382 293.667 L 136.347 293.907 L 117.974 291.037 L 119.09 283.406 Z " fill="rgb(47,46,65)"/><path d=" M 138.03 174.289 L 144.429 176.022 L 144.003 186.743 L 143.95 206.263 C 145.241 207.185 145.847 208.835 145.474 210.41 C 145.101 211.985 143.826 213.159 142.269 213.362 C 140.712 213.564 139.196 212.752 138.457 211.321 C 137.719 209.891 137.911 208.137 138.941 206.913 L 136.974 187.322 L 138.03 174.289 Z " fill="rgb(160,97,106)"/><path d=" M 136.916 162.009 C 136.988 159.893 138.251 158.016 140.145 157.208 C 141.919 156.388 143.995 156.733 145.431 158.087 C 146.453 159.031 147.021 160.392 146.983 161.808 C 147 168.089 145.628 177.244 145.614 177.335 L 145.592 177.481 L 136.24 180.736 L 136.916 162.009 Z " fill="rgb(203,203,203)"/><path d=" M 153.639 179.838 L 167.943 176.011 L 174.556 199.026 L 174.791 284.769 L 163.852 284.698 L 159.279 215.3 L 130.137 279.425 L 118.386 277.968 L 144.003 209.228 C 144.003 209.228 142.593 197.083 147.058 191.011 L 146.118 184.695 L 153.639 179.838 Z " fill="rgb(47,46,65)"/><path d=" M 143.993 185.564 C 143.589 185.055 143.418 184.39 143.526 183.742 L 137.001 163.511 C 136.379 161.579 136.917 159.449 138.374 158.079 L 141.207 155.418 L 143.127 147.482 L 154.159 150.269 L 153.25 154.027 L 158.243 153.089 L 168.76 177.297 L 146.777 186.378 L 145.695 186.396 C 145.035 186.397 144.41 186.091 143.993 185.564 L 143.993 185.564 Z " fill="rgb(203,203,203)"/><path d=" M 159.306 168.483 L 165.61 166.412 L 170.795 175.708 L 180.847 192.235 C 182.414 192.301 183.78 193.361 184.279 194.898 C 184.779 196.436 184.308 198.132 183.097 199.163 C 181.886 200.194 180.185 200.346 178.821 199.544 C 177.456 198.743 176.712 197.155 176.949 195.552 L 165.155 180.08 L 159.306 168.483 Z " fill="rgb(160,97,106)"/><path d=" M 152.014 158.719 C 150.98 156.891 151.076 154.607 152.26 152.879 C 153.335 151.206 155.268 150.351 157.181 150.701 C 158.533 150.934 159.717 151.771 160.418 152.989 C 163.68 158.287 167.256 166.782 167.291 166.867 L 167.348 167.003 L 161.127 174.92 L 152.014 158.719 Z " fill="rgb(203,203,203)"/><ellipse vector-effect="non-scaling-stroke" cx="151.2891971300446" cy="136.94608657541892" rx="8.765786457399088" ry="9.05949631554887" fill="rgb(160,97,106)"/><ellipse vector-effect="non-scaling-stroke" cx="135.79814322869953" cy="124.39808166872135" rx="8.44368430493273" ry="8.726601682799043" fill="rgb(47,46,65)"/><path d=" M 128.515 131.624 C 130.733 133.281 133.589 133.724 136.18 132.814 C 138.77 131.903 140.773 129.752 141.554 127.042 C 141.157 130.306 139.018 133.061 136.022 134.17 C 133.026 135.278 129.681 134.552 127.37 132.29 C 125.059 130.028 124.175 126.616 125.083 123.463 C 124.698 126.628 126.014 129.757 128.515 131.624 L 128.515 131.624 Z " fill="rgb(47,46,65)"/><path d=" M 161.838 131.634 C 160.363 128.907 159.799 127.767 157.899 126.109 C 156.218 124.642 154.151 124.211 152.483 125.601 C 148.433 123.792 143.713 124.946 140.876 128.438 C 138.038 131.93 137.754 136.933 140.178 140.744 C 142.602 144.555 147.158 146.27 151.386 144.962 C 155.613 143.655 158.509 139.635 158.509 135.074 C 158.507 134.684 158.484 134.295 158.441 133.907 C 159.89 133.697 160.388 131.844 161.838 131.634 Z " fill="rgb(47,46,65)"/><path d=" M 247.578 294 L 117 294 L 13 294 C 12.737 294 28 294.271 28 294 C 28 293.729 66.213 293.017 66.475 293.017 L 247.578 293.017 C 247.841 293.017 248.054 293.237 248.054 293.509 C 248.054 293.78 247.841 294 247.578 294 Z " fill="rgb(203,203,203)"/><path d=" M 489.525 294 L 308.422 294 C 308.159 294 307.946 293.78 307.946 293.509 C 307.946 293.237 308.159 293.017 308.422 293.017 L 489.525 293.017 C 489.787 293.017 490 293.237 490 293.509 C 490 293.78 489.787 294 489.525 294 Z " fill="rgb(203,203,203)"/><rect x="252.473" y="57.702" width="0.951" height="148.871" transform="matrix(1,0,0,1,0,0)" fill="rgb(203,203,203)"/></g><circle vector-effect="non-scaling-stroke" cx="16.748737214587763" cy="47.24575525658528" r="12.882245948880648" fill="rgb(255,101,132)"/></svg>