<svg id="Layer_1" data-name="Layer 1" xmlns="http://www.w3.org/2000/svg" viewBox="0 0 815.79 574.51"><defs><style>.cls-1{fill:#6c63ff;}.cls-2{fill:#3f3d56;}.cls-3{fill:#ffb6b6;}.cls-4{fill:#2f2e41;}.cls-5{fill:#f2f2f2;}.cls-6{fill:#fff;}.cls-7{fill:#e6e6e6;}.cls-8{fill:#ccc;}</style></defs><title>Artboard 1</title><circle class="cls-1" cx="406.79" cy="238.5" r="26"/><path class="cls-2" d="M114.25,37.72V285.34A22.72,22.72,0,0,0,136.94,308H784.56a22.73,22.73,0,0,0,22.69-22.69V37.72A22.72,22.72,0,0,0,784.56,15H136.94A22.7,22.7,0,0,0,114.25,37.72Zm2,0A20.69,20.69,0,0,1,136.94,17H649.57A155.67,155.67,0,0,1,805.25,172.7V285.34A20.69,20.69,0,0,1,784.56,306H136.94a20.69,20.69,0,0,1-20.69-20.69h0Z"/><path class="cls-1" d="M447.84,452.18h14.07q12.09,0,12.08,11.28,0,8.07-4.21,12.58t-11.86,4.52H441.4q-9,0-13.94-5.17t-4.91-14.78q0-6.18,3.65-18.05l22.33-71.49-16.77,24.58q-6,8.91-11.39,8.91-7,0-9.12-13.18l-2.43-14.73-21.21,71.49q-11,36.81-16.69,50.05a79.14,79.14,0,0,1-14.86,23q-13.2,14-30.33,14-18.24,0-29.63-15.73t-11.39-41q0-33.14,17.91-58.31a75.53,75.53,0,0,1,24.07-21.67q14.43-8.25,28.42-8.25,7.13,0,11.38,4.16t4.26,11a15.91,15.91,0,0,1-4.52,11.76q-2.61,2.61-10.08,3.56-17.29,2.13-27.9,10.8a50.76,50.76,0,0,0-13.95,18.88,59.46,59.46,0,0,0-5.17,24.35q0,13.53,5,21.31T328,503.83q10.51,0,18.3-12.29t17.07-43.4l34.51-116q4.51-15.31,12.16-15.31a8.76,8.76,0,0,1,7.69,4.27q2.82,4.28,4.91,15l5.3,27.31,26.08-35q8.6-11.51,16.07-11.51a11.05,11.05,0,0,1,8.82,4.33,15.86,15.86,0,0,1,3.61,10.51,29.81,29.81,0,0,1-1.39,8.55l-2,6.65Z"/><path class="cls-1" d="M542.91,454.67h9.56q10.95,0,10.95,10.45,0,7.25-3.91,11.34t-10.78,4.1H537.61q-7.47,0-10.17-8-6.51,8-12.6,8h-9.91q-9.56,0-15.42-9.33t-5.87-24.4q0-22.8,11.52-40.79t26-18q11.12,0,16.25,10.57,4.34-8.91,11.38-8.9a7.77,7.77,0,0,1,6.39,3.32,13,13,0,0,1,2.56,8.19,28.29,28.29,0,0,1-1.39,8l-1,3.21Zm-31.55.59h2.18q7.13,0,9.47-7.95l6.08-20.55a24.31,24.31,0,0,0,1.22-6.76,7.8,7.8,0,0,0-2.3-5.59,7.44,7.44,0,0,0-5.52-2.37q-6.35,0-12.34,10.09a40.38,40.38,0,0,0-6,20.9Q504.15,455.27,511.36,455.26Z"/><path class="cls-1" d="M590.88,454.67h9.82q10.95,0,10.95,10.57,0,7.25-3.86,11.28t-10.82,4H583.15q-7.65,0-12-4.28t-4.39-11.64a36,36,0,0,1,1.83-10l14.34-48.21,1-3.33q4-13.41,12.87-13.41A7.85,7.85,0,0,1,603,393a12.42,12.42,0,0,1,2.65,8q0,3.79-2.35,11.63Zm11.47-102.83q5,0,8.57,4.8a21.25,21.25,0,0,1,0,23.4q-3.52,4.8-8.57,4.81T593.8,380a21.15,21.15,0,0,1,0-23.4Q597.31,351.84,602.35,351.84Z"/><path class="cls-1" d="M679.35,454.67h10.43q11,0,11,10.57,0,7.25-3.91,11.28t-10.78,4H668a11.09,11.09,0,0,1-8.91-4.4,16.84,16.84,0,0,1-3.61-11q0-4,2.44-12.11l7.65-25.89a27.28,27.28,0,0,0,1.3-6.53,6.77,6.77,0,0,0-1.7-4.87,5.81,5.81,0,0,0-4.56-2q-9,0-14.42,18.41L635.9,466.54q-4.6,15.68-13.73,15.68a8,8,0,0,1-6.34-3.09,11.37,11.37,0,0,1-2.61-7.6,28.23,28.23,0,0,1,1.39-7.95l.95-3.21,17.56-59.14q3.39-11.5,11.56-11.51,6.69,0,9.56,8.07,9.3-9.74,17.73-9.74a16.73,16.73,0,0,1,13.47,6.42q5.29,6.4,5.3,16.26a43.16,43.16,0,0,1-1.91,12Z"/><path class="cls-1" d="M733,422.13l-1.65,5.47q-3.83,11.75-10.86,11.75c-2.38,0-4.5-1.13-6.39-3.38a11.81,11.81,0,0,1-2.82-7.78q0-4.15,2.52-11l11.56-32.07q4.26-11.5,10.6-11.51a7.27,7.27,0,0,1,5.82,3,11.15,11.15,0,0,1,2.44,7.19,42.48,42.48,0,0,1-.53,4.63,35.66,35.66,0,0,0-.34,4.63,33.06,33.06,0,0,0,4.08,15.32l5,9.38q7.56,14.37,7.56,27.79,0,15-8.17,25t-20.34,10H713.25q-11,0-11-10.45,0-7.25,3.91-11.34t10.78-4.1H727q12.07,0,12.08-12a29.86,29.86,0,0,0-2.26-10.33Z"/><polygon class="cls-3" points="130.26 555.88 144.77 555.88 151.67 499.92 130.26 499.93 130.26 555.88"/><path class="cls-4" d="M129.75,571h44.61v-.56A17.37,17.37,0,0,0,157,553.08h0l-8.15-6.18-15.21,6.19h-3.89Z"/><polygon class="cls-3" points="66.98 555.88 81.49 555.88 88.39 499.92 66.98 499.93 66.98 555.88"/><path class="cls-4" d="M66.47,571h44.61v-.56a17.38,17.38,0,0,0-17.36-17.37h0l-8.14-6.18-15.21,6.19H66.47Z"/><path class="cls-4" d="M166.38,251s14,42.87,11.38,48.51-7,1.25-2.57,5.65,8.23-.28,4.11,7.18S169,381.25,166.21,384.22s-6.52,3.06-3.17,5.95,7.75-3,3.36,2.89-16.06,141.06-16.06,141.06H127.55s-5.67-6.54-2.46-10.8-.28-5.9,0-8.74-.79-9-1-11.77-4-69.41,5.21-107.9l-16.87-73.28L92,410.2s9.4,74.29,0,98.17c0,0,7.58,6.31,4.22,10s-6.29.72-3.36,3.65-4.4,13.19-4.4,13.19l-24.91-1.47L49.46,394.91s-2.38-14.47,0-17,2.37,6.31,2.37-2.49V363.75s1.38-72.09,1.56-76.34,17.77-35,17.77-35Z"/><path class="cls-1" d="M166.17,102.93v84.53A81.36,81.36,0,0,0,162,212.84c.09,14.37,3.25,30.93,3.24,38.17a9.14,9.14,0,0,1-.31,2.85c-14,40.55-88,3.7-94.75.25l-.49-.25,1.46-45.42-.25-13.06-1.73-89.59,1.55-1.24L84.3,93.72l1.33-1.06,4.08,6,36.37-2.5L140,92.27,144.29,94,163.81,102Z"/><path class="cls-3" d="M292.93,169.36l-25.49-8.43-6.84,13.89,27.26,8a9,9,0,1,0,5.07-13.41Z"/><path class="cls-1" d="M141.48,94.71l-.1.42c-2,8-4.54,30.73.91,36.87,7,7.9,63.52,32,74.75,30.06,8.71-1.53,6.91-1,11.08,3.32s-2.75,5.35,6.55,6.1,9.48-2.8,11.47,1.15.22,6.33,6.54,6.11,7.91,1,10.09,1.35S278.61,187,278.61,187s5.48-15.64,12.38-21.59c0,0-15.83-1.92-17-5.28s-.22-6.33-4.37-5.72-6.31,5.16-5.74-.57-29.31-16.9-29.31-16.9C216.51,119.13,179.45,106.79,141.48,94.71Z"/><path class="cls-3" d="M60.62,271.25l-1.16-26.82L44.05,243l2.23,28.32a9,9,0,1,0,14.34,0Z"/><path class="cls-1" d="M76.73,103.18l-.43,0a24.9,24.9,0,0,0-19.13,13.16c-4.9,9.34-20.43,72.63-16.63,81.31,3.55,8.1,3.4,6.11.82,11.54s-6-.67-3.38,8.29,6,7.87,3,11.13-5.84,2.45-3.39,8.28,1.91,7.74,2.32,9.91-.81,17.25-.81,17.25,16.57-.42,24.58,3.92c0,0-3.81-15.48-1.1-17.79s5.84-2.45,3.8-6.11-7.06-4.07-1.5-5.57,5.41-33.4,5.41-33.4Z"/><path class="cls-3" d="M116.44,69c-.65.15-1.3.28-2,.38a26.85,26.85,0,0,1-6,.31,28.37,28.37,0,1,1,29-35.44c.06.23.12.45.17.68A28.37,28.37,0,0,1,116.44,69Z"/><path class="cls-4" d="M90.26,65.65c-3.94-3.09-4.33-9-7.69-12.68-5.63-6.2-8.28-12.88-5.33-20.23,2.61-6.5,2.05-14.49,7.67-18.68-2.76-1-3.41-3.07-1-3.11,1.64,0,7.76,3.11,4.81-.79s2.63-2.37,2.27-4S88.28,3.7,87.24,5c3.33-3.9,10.6-3.07,13,1.49,3.32-5,6.84-8.4,11.92-5.24s4.92,6.93,10.28,6c2.52-.44,2.76,4.33,4.48,6.22s4.24,3.35,6.76,2.88,4.43-3.61,3-5.74l5.93,13.51L145,21.17c3.8,2.47,2.55,8.92-1.27,11.36s-11.1-3.19-13.17.83c-3.27,6.35-10.93,3.14-16.2-1.34-6.38-5.44-14.08,11.1-11,18.9-3.19-3.13-9.09-.53-10.74,3.62s-.44,8.83.78,13.13Z"/><path class="cls-5" d="M484.42,159h-30a3,3,0,0,1-2.94-2.94V126.44a3,3,0,0,1,2.94-2.94h30a3,3,0,0,1,2.94,2.94v29.65A3,3,0,0,1,484.42,159Z"/><path class="cls-5" d="M489.42,161.53h-30a3,3,0,0,1-2.94-2.94V128.94A2.94,2.94,0,0,1,459.4,126h30a2.93,2.93,0,0,1,2.93,2.94v29.65A2.94,2.94,0,0,1,489.42,161.53Z"/><path class="cls-6" d="M455,124.38a2.68,2.68,0,0,0-2.69,2.69v28.39a2.68,2.68,0,0,0,2.69,2.69h18.36a13.09,13.09,0,0,0,13.09-13.09h0v-18a2.68,2.68,0,0,0-2.69-2.69Z"/><path class="cls-5" d="M477.45,133H461.31a.56.56,0,1,1,0-1.11h16.14a.56.56,0,1,1,0,1.11Z"/><path class="cls-5" d="M477.45,144.9H461.31a.56.56,0,1,1,0-1.12h16.14a.56.56,0,0,1,0,1.12Z"/><path class="cls-5" d="M484,139H454.75a.56.56,0,1,1,0-1.12H484a.56.56,0,1,1,0,1.12Z"/><path class="cls-5" d="M484.3,149.74H473.74a.56.56,0,1,1,0-1.11H484.3a.56.56,0,1,1,0,1.11Z"/><path class="cls-5" d="M393.89,177.59l-.39-.19c-22.78-11.26-47.42-11.25-75.33,0l-.75-1.86c28.31-11.44,53.36-11.49,76.57-.16,32.67-12.43,53.67-33.5,62.42-62.62l1.92.57c-9,29.88-30.53,51.43-64,64.08Z"/><path class="cls-5" d="M488.91,177.59l-.39-.18c-22.39-10.51-47-10.5-75.38,0l-.7-1.88c28.7-10.66,53.74-10.71,76.53-.15,36.58-14.61,57.57-35.64,62.41-62.51l2,.35c-5,27.7-26.54,49.29-64,64.18Z"/><path class="cls-5" d="M563.8,176.52l-.25-.1c-18.45-7.93-42.45-7.91-75.52.05l-.47-1.94c33.37-8,57.7-8.06,76.53-.06,37.38-4.57,57.76-25,62.29-62.52l2,.25c-4.67,38.63-25.7,59.66-64.3,64.29Z"/><circle class="cls-1" cx="465.79" cy="109.5" r="8"/><circle class="cls-1" cx="555.79" cy="109.5" r="8"/><circle class="cls-1" cx="627.79" cy="108.5" r="8"/><path class="cls-7" d="M404.79,238.53h-84.1a8.25,8.25,0,0,1-8.23-8.23V147.23a8.25,8.25,0,0,1,8.23-8.23h84.1a8.25,8.25,0,0,1,8.23,8.23V230.3A8.25,8.25,0,0,1,404.79,238.53Z"/><path class="cls-7" d="M390.79,231.53h-84.1a8.25,8.25,0,0,1-8.23-8.23V140.23a8.25,8.25,0,0,1,8.23-8.23h84.1a8.25,8.25,0,0,1,8.23,8.23V223.3A8.25,8.25,0,0,1,390.79,231.53Z"/><path class="cls-6" d="M322.35,134.45a21.43,21.43,0,0,0-21.43,21.44h0v65.64a7.53,7.53,0,0,0,7.54,7.54h51.42a36.68,36.68,0,0,0,36.68-36.68V142a7.54,7.54,0,0,0-7.54-7.54Z"/><path class="cls-7" d="M371.26,158.59H326a1.57,1.57,0,1,1,0-3.13h45.23a1.57,1.57,0,0,1,0,3.13Z"/><path class="cls-7" d="M371.26,192H326a1.57,1.57,0,0,1,0-3.13h45.22a1.57,1.57,0,1,1,0,3.13Z"/><path class="cls-7" d="M389.62,175.28H307.68a1.56,1.56,0,1,1,0-3.12h81.95a1.56,1.56,0,1,1,0,3.12Z"/><path class="cls-7" d="M390.46,205.52h-29.6a1.57,1.57,0,1,1,0-3.13h29.61a1.57,1.57,0,0,1,0,3.13Z"/><path class="cls-5" d="M590.42,155h-30a3,3,0,0,1-2.94-2.94V122.44a3,3,0,0,1,2.94-2.94h30a3,3,0,0,1,2.94,2.94v29.65A3,3,0,0,1,590.42,155Z"/><path class="cls-5" d="M595.42,157.53h-30a3,3,0,0,1-2.94-2.94V124.94A2.94,2.94,0,0,1,565.4,122h30a2.93,2.93,0,0,1,2.93,2.94v29.65A2.94,2.94,0,0,1,595.42,157.53Z"/><path class="cls-6" d="M561,120.38a2.68,2.68,0,0,0-2.69,2.69v28.39a2.68,2.68,0,0,0,2.69,2.69h18.36a13.09,13.09,0,0,0,13.09-13.09h0v-18a2.68,2.68,0,0,0-2.69-2.69Z"/><path class="cls-5" d="M583.45,129H567.31a.56.56,0,1,1,0-1.11h16.14a.56.56,0,1,1,0,1.11Z"/><path class="cls-5" d="M583.45,140.9H567.31a.56.56,0,0,1,0-1.12h16.14a.56.56,0,1,1,0,1.12Z"/><path class="cls-5" d="M590,135H560.75a.56.56,0,0,1,0-1.12H590a.56.56,0,0,1,0,1.12Z"/><path class="cls-5" d="M590.3,145.74H579.74a.56.56,0,1,1,0-1.11H590.3a.56.56,0,1,1,0,1.11Z"/><path class="cls-1" d="M246.31,557.18a2.28,2.28,0,0,1-2.37-2.17,2.25,2.25,0,0,1,.73-1.77l.15-.62-.06-.14a6.09,6.09,0,0,0-11.24,0c-1.84,4.43-4.18,8.86-4.76,13.54a18.2,18.2,0,0,0,.32,6.2,72.32,72.32,0,0,1-6.58-30,69.69,69.69,0,0,1,.44-7.78c.23-2.12.57-4.22,1-6.31a73.16,73.16,0,0,1,14.5-31,19.47,19.47,0,0,0,8.09-8.4,14.52,14.52,0,0,0,1.35-4.05c-.39.05-1.48-5.95-1.18-6.32-.55-.83-1.54-1.25-2.14-2.06-3-4-7.09-3.34-9.23,2.16-4.58,2.31-4.63,6.15-1.82,9.83,1.79,2.35,2,5.53,3.61,8-.16.21-.33.41-.49.61a73.4,73.4,0,0,0-7.69,12.17,30.6,30.6,0,0,0-1.82-14.21c-1.75-4.22-5-7.77-7.91-11.41A6.28,6.28,0,0,0,208,486.6s0,.11,0,.16c.43.24.84.5,1.26.77a3.08,3.08,0,0,1,.84,4.27,3,3,0,0,1-2.09,1.33H208a29.47,29.47,0,0,0,.81,4.58c-3.7,14.32,4.29,19.53,15.7,19.77l.75.38a74.59,74.59,0,0,0-4,19,70.1,70.1,0,0,0,.05,11.5l0-.14a18.88,18.88,0,0,0-6.43-10.87c-4.94-4.06-11.93-5.56-17.27-8.82a3.53,3.53,0,0,0-4.88,1.06,3.57,3.57,0,0,0-.53,2.38l0,.14a18.34,18.34,0,0,1,2.32,1.12c.43.24.85.49,1.26.76a3.09,3.09,0,0,1-1.24,5.61h-.06l-.13,0a30.83,30.83,0,0,0,5.64,8.83c2.31,12.49,12.25,13.68,22.89,10h0a75.06,75.06,0,0,0,5.05,14.72h18l.18-.6a20.88,20.88,0,0,1-5-.3l4-4.93.09-.1,2-2.51h0a29.73,29.73,0,0,0-.88-7.64Z"/><path class="cls-8" d="M0,573.32a1.19,1.19,0,0,0,1.18,1.19h253.3a1.19,1.19,0,0,0,0-2.38H1.19A1.18,1.18,0,0,0,0,573.31Z"/><path class="cls-5" d="M108.48,69.69l6-.31A26.85,26.85,0,0,1,108.48,69.69Z"/><polygon class="cls-2" points="144.29 94.03 143.3 95.29 140.64 98.67 117.67 127.88 84.3 93.72 85.63 92.66 92.71 77.61 129.08 75.11 139.96 92.27 144.29 94.03"/><circle class="cls-1" cx="257.74" cy="581.88" r="26"/></svg>