<svg id="Layer_1" data-name="Layer 1" xmlns="http://www.w3.org/2000/svg" viewBox="0 0 815.79 574.51"><defs><style>.cls-1{fill:#6c63ff;}.cls-2{fill:#3f3d56;}.cls-3{fill:#ffb6b6;}.cls-4{fill:#2f2e41;}.cls-5{fill:#f2f2f2;}.cls-6{fill:#fff;}.cls-7{fill:#e6e6e6;}.cls-8{fill:#ccc;}</style></defs><title>JeeMain</title><ellipse class="cls-1" cx="391.85" cy="239.96" rx="27.53" ry="26.16"/><path class="cls-2" d="M82.15,38V287.08c0,12.6,10.76,22.82,24,22.83h685.6c13.26,0,24-10.23,24-22.83V38c0-12.61-10.76-22.82-24-22.83H106.17C92.91,15.13,82.16,25.34,82.15,38Zm2.11,0c0-11.5,9.81-20.82,21.91-20.82h542.7c91,0,164.81,70.12,164.81,156.63V287.08c0,11.5-9.81,20.82-21.91,20.82H106.17c-12.1,0-21.91-9.32-21.91-20.82h0Z" transform="translate(0)"/><path class="cls-1" d="M543.49,522h11.7q10,0,10,7.08a9.58,9.58,0,0,1-3.5,7.9q-3.51,2.82-9.86,2.83H538.14q-7.51,0-11.59-3.24t-4.09-9.28q0-3.87,3-11.33l18.57-44.86-14,15.43q-5,5.58-9.46,5.59c-3.91,0-6.43-2.76-7.59-8.27l-2-9.24-17.63,44.86q-9.1,23.1-13.87,31.4a50.88,50.88,0,0,1-12.36,14.42,39.23,39.23,0,0,1-25.21,8.8q-15.18,0-24.64-9.88t-9.47-25.74q0-20.79,14.89-36.59a60,60,0,0,1,20-13.6,59.35,59.35,0,0,1,23.63-5.18q5.93,0,9.46,2.61a8.19,8.19,0,0,1,3.54,6.93,8.82,8.82,0,0,1-3.76,7.38c-1.44,1.09-4.23,1.84-8.38,2.23q-14.37,1.35-23.19,6.78a34.22,34.22,0,0,0-11.59,11.85,29.65,29.65,0,0,0-4.3,15.28q0,8.49,4.19,13.37t11.48,4.88q8.75,0,15.21-7.71t14.2-27.23l28.68-72.81q3.76-9.61,10.12-9.61a8,8,0,0,1,6.39,2.68q2.35,2.69,4.08,9.39l4.41,17.14,21.68-22Q555.78,437,562,437a10.55,10.55,0,0,1,7.34,2.72,8.57,8.57,0,0,1,3,6.59,14.67,14.67,0,0,1-1.16,5.37l-1.66,4.17Z" transform="translate(0)"/><path class="cls-1" d="M622.53,523.53h8q9.1,0,9.1,6.56a8.58,8.58,0,0,1-3.25,7.12q-3.26,2.56-9,2.57h-9.25q-6.21,0-8.45-5-5.42,5-10.48,5H591a15.89,15.89,0,0,1-12.83-5.85q-4.87-5.85-4.88-15.31a38.48,38.48,0,0,1,9.58-25.6q9.57-11.29,21.64-11.29,9.24,0,13.51,6.63,3.6-5.58,9.46-5.59a7.29,7.29,0,0,1,5.31,2.09,6.9,6.9,0,0,1,2.13,5.14,13.87,13.87,0,0,1-1.15,5l-.8,2Zm-26.23.38h1.81q5.92,0,7.87-5L611,506a12,12,0,0,0,1-4.25,4.37,4.37,0,0,0-1.91-3.5,7.28,7.28,0,0,0-4.59-1.49q-5.28,0-10.26,6.34t-5,13.11Q590.31,523.91,596.3,523.91Z" transform="translate(0)"/><path class="cls-1" d="M662.41,523.53h8.17q9.09,0,9.1,6.64a8.46,8.46,0,0,1-3.22,7.07q-3.21,2.53-9,2.54H656q-6.36,0-10-2.68a8.6,8.6,0,0,1-3.64-7.31,17.78,17.78,0,0,1,1.51-6.26l11.92-30.25.8-2.09q3.32-8.42,10.69-8.42a7.36,7.36,0,0,1,5.24,2.09,6.62,6.62,0,0,1,2.2,5c0,1.59-.65,4-2,7.3Z" transform="translate(0)"/><path class="cls-1" d="M736,523.53h8.67q9.18,0,9.18,6.64a8.46,8.46,0,0,1-3.25,7.07q-3.25,2.53-9,2.54H726.5a10.54,10.54,0,0,1-7.41-2.76,9,9,0,0,1-3-6.93q0-2.54,2-7.6l6.35-16.24a13.4,13.4,0,0,0,1.09-4.1,3.7,3.7,0,0,0-1.41-3.06,5.65,5.65,0,0,0-3.79-1.26q-7.46,0-12,11.55L699.84,531q-3.84,9.82-11.42,9.83a7.58,7.58,0,0,1-5.27-1.94,6.13,6.13,0,0,1-2.17-4.76,13.75,13.75,0,0,1,1.16-5l.79-2L697.52,490q2.82-7.23,9.61-7.23a8.18,8.18,0,0,1,8,5.07q7.73-6.1,14.74-6.11a16,16,0,0,1,11.2,4A13.24,13.24,0,0,1,745.43,496a21,21,0,0,1-1.59,7.53Z" transform="translate(0)"/><path class="cls-1" d="M780.54,503.12l-1.37,3.42q-3.18,7.38-9,7.38a7.71,7.71,0,0,1-5.31-2.12,6.41,6.41,0,0,1-2.35-4.88,17.05,17.05,0,0,1,2.09-6.93l9.61-20.12q3.54-7.23,8.82-7.23a6.81,6.81,0,0,1,4.84,1.9,6,6,0,0,1,2,4.51,19.94,19.94,0,0,1-.43,2.9,16.41,16.41,0,0,0-.29,2.91,17,17,0,0,0,3.39,9.61l4.12,5.89q6.29,9,6.29,17.44a20.53,20.53,0,0,1-6.79,15.68,23.93,23.93,0,0,1-16.91,6.3h-15.1q-9.18,0-9.18-6.56a8.6,8.6,0,0,1,3.25-7.12q3.25-2.57,9-2.57h8.38q10.05,0,10.05-7.52a14.94,14.94,0,0,0-1.88-6.49Z" transform="translate(0)"/><polygon class="cls-3" points="99.1 559.28 114.45 559.28 121.76 502.98 99.09 502.99 99.1 559.28"/><path class="cls-4" d="M98.56,574.51h47.22v-.57c0-9.65-8.23-17.47-18.38-17.47h0l-8.63-6.22-16.09,6.22H98.55Z" transform="translate(0)"/><polygon class="cls-3" points="32.1 559.28 47.46 559.28 54.77 502.98 32.1 502.99 32.1 559.28"/><path class="cls-4" d="M31.56,574.51H78.79v-.57c0-9.65-8.23-17.47-18.38-17.47h0l-8.63-6.22-16.1,6.22H31.56Z" transform="translate(0)"/><path class="cls-4" d="M137.34,252.53s14.77,43.13,12,48.81-7.38,1.25-2.72,5.67,8.71-.28,4.35,7.23-10.95,69.34-13.86,72.33-6.89,3.08-3.35,6,8.2-3,3.55,2.91-17,141.93-17,141.93H96.23s-6-6.58-2.61-10.87-.3-5.93,0-8.79-.83-9-1-11.84-4.29-69.84,5.5-108.56L80.23,323.6,58.59,412.71s10,74.74,0,98.77c0,0,8,6.35,4.47,10s-6.66.73-3.56,3.68-4.65,13.27-4.65,13.27L28.48,537,13.55,397.33s-2.51-14.57,0-17.06,2.52,6.35,2.52-2.5V366s1.45-72.54,1.65-76.81,18.81-35.23,18.81-35.23Z" transform="translate(0)"/><path class="cls-1" d="M137.12,103.56v85.05a78.11,78.11,0,0,0-4.42,25.53c.1,14.46,3.44,31.12,3.43,38.41a8.93,8.93,0,0,1-.33,2.86c-14.81,40.8-93.18,3.73-100.3.26l-.52-.26,1.54-45.69-.26-13.14-1.83-90.14,1.64-1.25,14.37-10.9,1.41-1.06,4.32,6,38.5-2.51,14.7-3.87L114,94.61l20.67,8Z" transform="translate(0)"/><path class="cls-3" d="M271.31,170.39l-27-8.48-7.24,14,28.86,8a9.82,9.82,0,0,0,13.12,2.83,8.79,8.79,0,0,0,3-12.47,9.76,9.76,0,0,0-10.73-3.86Z" transform="translate(0)"/><path class="cls-1" d="M111,95.29l-.11.42c-2.11,8-4.8,30.92,1,37.1,7.41,7.95,67.25,32.21,79.13,30.24,9.22-1.54,7.33-1,11.74,3.34s-2.91,5.38,6.93,6.14,10-2.81,12.14,1.16.23,6.36,6.93,6.14,8.37,1,10.68,1.36,16.76,6.9,16.76,6.9,5.81-15.73,13.11-21.72c0,0-16.75-1.93-18-5.31s-.23-6.36-4.62-5.75-6.68,5.19-6.08-.58-31-17-31-17C190.4,119.86,151.17,107.44,111,95.29Z" transform="translate(0)"/><path class="cls-3" d="M25.37,272.91l-1.22-27L7.83,244.44l2.36,28.49a8.75,8.75,0,0,0,1.87,12.66,9.84,9.84,0,0,0,13.32-1.78A8.68,8.68,0,0,0,25.37,272.91Z" transform="translate(0)"/><path class="cls-1" d="M42.43,103.81l-.46,0A26.39,26.39,0,0,0,21.72,117.1C16.53,126.5.09,190.17,4.11,198.91c3.76,8.15,3.6,6.15.88,11.61s-6.33-.68-3.59,8.34,6.33,7.92,3.17,11.2-6.18,2.46-3.59,8.33,2,7.79,2.45,10-.85,17.35-.85,17.35,17.54-.42,26,4c0,0-4-15.57-1.16-17.9s6.18-2.46,4-6.15S24,241.52,29.87,240s5.73-33.6,5.73-33.6Z" transform="translate(0)"/><path class="cls-3" d="M84.47,69.42c-.69.15-1.38.28-2.07.38a30.06,30.06,0,0,1-6.36.32c-16.56-.85-29.26-14.29-28.37-30s15-27.82,31.59-27c13.07.67,24.18,9.3,27.46,21.34.07.23.13.45.18.68C110.66,50.5,100.62,65.84,84.47,69.42Z" transform="translate(0)"/><path class="cls-4" d="M56.75,66.05c-4.18-3.1-4.58-9-8.15-12.76-6-6.24-8.76-12.95-5.63-20.35,2.76-6.54,2.17-14.58,8.12-18.79-2.92-1-3.61-3.09-1-3.13,1.73,0,8.21,3.13,5.1-.8s2.78-2.38,2.39-4-2.89-2.5-4-1.23c3.53-3.92,11.22-3.08,13.72,1.49,3.52-5,7.24-8.44,12.62-5.27s5.21,7,10.89,6.05c2.67-.43,2.92,4.36,4.74,6.26s4.49,3.38,7.15,2.9,4.7-3.63,3.2-5.78l6.28,13.6,2.52-2.95c4,2.49,2.7,9-1.34,11.43s-11.76-3.21-14,.84C95.92,40,87.81,36.73,82.23,32.22c-6.75-5.48-14.91,11.16-11.65,19C67.2,48.08,61,50.69,59.2,54.87s-.46,8.89.83,13.22Z" transform="translate(0)"/><path class="cls-5" d="M474,160H442.25a3,3,0,0,1-3.11-3V127.21a3,3,0,0,1,3.11-2.95H474a3,3,0,0,1,3.11,2.95V157A3,3,0,0,1,474,160Z" transform="translate(0)"/><path class="cls-5" d="M479.32,162.51H447.54a3,3,0,0,1-3.11-2.95V129.73a3,3,0,0,1,3.11-3h31.78a3,3,0,0,1,3.11,3v29.83A3,3,0,0,1,479.32,162.51Z" transform="translate(0)"/><path class="cls-6" d="M442.92,125.14a2.78,2.78,0,0,0-2.85,2.7v28.57a2.78,2.78,0,0,0,2.85,2.71h19.43c7.65,0,13.86-5.9,13.86-13.18h0v-18.1a2.78,2.78,0,0,0-2.85-2.7Z" transform="translate(0)"/><path class="cls-5" d="M466.65,133.81H449.56a.58.58,0,0,1-.59-.57.57.57,0,0,1,.59-.56h17.09a.57.57,0,0,1,.59.56A.58.58,0,0,1,466.65,133.81Z" transform="translate(0)"/><path class="cls-5" d="M466.65,145.79H449.56a.57.57,0,0,1-.59-.56.58.58,0,0,1,.59-.57h17.09a.58.58,0,0,1,.59.57A.57.57,0,0,1,466.65,145.79Z" transform="translate(0)"/><path class="cls-5" d="M473.59,139.8h-31a.56.56,0,1,1,0-1.12h31a.56.56,0,1,1,0,1.12Z" transform="translate(0)"/><path class="cls-5" d="M473.91,150.66H462.72a.56.56,0,1,1,0-1.12h11.19a.56.56,0,1,1,0,1.12Z" transform="translate(0)"/><path class="cls-5" d="M378.19,178.68l-.41-.2c-24.12-11.33-50.21-11.32-79.75,0l-.8-1.86c30-11.51,56.5-11.57,81.07-.17,34.58-12.5,56.81-33.7,66.08-63l2,.58c-9.5,30.05-32.31,51.74-67.78,64.46Z" transform="translate(0)"/><path class="cls-5" d="M478.78,178.68l-.41-.19c-23.7-10.57-49.8-10.56-79.8,0l-.74-1.88c30.38-10.73,56.89-10.78,81-.16,38.72-14.7,60.94-35.86,66.07-62.89L547,114c-5.28,27.86-28.09,49.58-67.79,64.56Z" transform="translate(0)"/><path class="cls-5" d="M558.06,177.61l-.26-.11c-19.53-8-44.94-8-79.95.05l-.5-2c35.33-8.09,61.09-8.11,81-.06,39.57-4.6,61.15-25.17,65.94-62.9l2.1.24c-4.94,38.87-27.2,60-68.07,64.69Z" transform="translate(0)"/><ellipse class="cls-1" cx="454.31" cy="110.17" rx="8.47" ry="8.05"/><ellipse class="cls-1" cx="549.59" cy="110.17" rx="8.47" ry="8.05"/><ellipse class="cls-1" cx="625.81" cy="109.16" rx="8.47" ry="8.05"/><path class="cls-7" d="M389.72,240h-89a8.51,8.51,0,0,1-8.71-8.28V148.13a8.51,8.51,0,0,1,8.71-8.28h89a8.53,8.53,0,0,1,8.72,8.28v83.58A8.53,8.53,0,0,1,389.72,240Z" transform="translate(0)"/><path class="cls-7" d="M374.9,232.94h-89a8.52,8.52,0,0,1-8.72-8.28V141.09a8.52,8.52,0,0,1,8.72-8.28h89a8.51,8.51,0,0,1,8.71,8.28v83.57A8.51,8.51,0,0,1,374.9,232.94Z" transform="translate(0)"/><path class="cls-6" d="M302.46,135.27c-12.54,0-22.7,9.66-22.7,21.57h0v66a7.79,7.79,0,0,0,8,7.59h54.44c21.45,0,38.84-16.53,38.84-36.92v-50.7a7.8,7.8,0,0,0-8-7.59Z" transform="translate(0)"/><path class="cls-7" d="M354.23,159.56H306.36a1.58,1.58,0,1,1,0-3.15h47.88a1.58,1.58,0,1,1,0,3.15Z" transform="translate(0)"/><path class="cls-7" d="M354.23,193.13H306.36a1.58,1.58,0,1,1,0-3.15h47.87a1.58,1.58,0,1,1,0,3.15Z" transform="translate(0)"/><path class="cls-7" d="M373.67,176.36H286.92a1.58,1.58,0,1,1,0-3.15h86.76a1.62,1.62,0,0,1,1.66,1.58A1.64,1.64,0,0,1,373.67,176.36Z" transform="translate(0)"/><path class="cls-7" d="M374.56,206.78H343.22a1.58,1.58,0,1,1,0-3.15h31.35a1.58,1.58,0,1,1,0,3.15Z" transform="translate(0)"/><path class="cls-5" d="M586.25,156H554.47a3,3,0,0,1-3.11-3V123.19a3,3,0,0,1,3.11-3h31.78a3.05,3.05,0,0,1,3.11,3V153A3.06,3.06,0,0,1,586.25,156Z" transform="translate(0)"/><path class="cls-5" d="M591.54,158.49H559.76a3,3,0,0,1-3.11-3V125.7a3,3,0,0,1,3.11-3h31.78a3,3,0,0,1,3.11,3v29.83A3,3,0,0,1,591.54,158.49Z" transform="translate(0)"/><path class="cls-6" d="M555.13,121.11a2.78,2.78,0,0,0-2.85,2.71v28.57a2.79,2.79,0,0,0,2.85,2.71h19.43c7.66,0,13.87-5.9,13.87-13.18h0v-18.1a2.78,2.78,0,0,0-2.85-2.71Z" transform="translate(0)"/><path class="cls-5" d="M578.87,129.78H561.78a.56.56,0,1,1,0-1.12h17.09a.56.56,0,1,1,0,1.12Z" transform="translate(0)"/><path class="cls-5" d="M578.87,141.76H561.78a.56.56,0,1,1,0-1.12h17.09a.56.56,0,1,1,0,1.12Z" transform="translate(0)"/><path class="cls-5" d="M585.81,135.78h-31a.57.57,0,1,1,0-1.13h31a.57.57,0,1,1,0,1.13Z" transform="translate(0)"/><path class="cls-5" d="M586.12,146.64H574.94a.59.59,0,0,1-.6-.57.58.58,0,0,1,.6-.56h11.18a.57.57,0,0,1,.59.56.58.58,0,0,1-.59.57Z" transform="translate(0)"/><path class="cls-1" d="M392.21,557.78a2.36,2.36,0,0,1-2.51-2.18,2.24,2.24,0,0,1,.77-1.78l.17-.62a1,1,0,0,1-.07-.15,6.58,6.58,0,0,0-8.46-3.26,6.32,6.32,0,0,0-3.44,3.3c-1.95,4.46-4.43,8.92-5,13.63A17.49,17.49,0,0,0,374,573a69.66,69.66,0,0,1-7-30.2,66.07,66.07,0,0,1,.46-7.83c.25-2.14.6-4.25,1-6.35a72,72,0,0,1,15.35-31.18,20.09,20.09,0,0,0,8.57-8.45,14.57,14.57,0,0,0,1.43-4.08c-.42.05-1.58-6-1.26-6.36-.58-.84-1.62-1.25-2.26-2.07-3.15-4.07-7.5-3.36-9.78,2.17-4.85,2.33-4.89,6.19-1.92,9.9,1.9,2.36,2.16,5.55,3.82,8.08l-.52.62a73.27,73.27,0,0,0-8.13,12.24,29.42,29.42,0,0,0-1.94-14.3c-1.85-4.24-5.32-7.81-8.37-11.48a6.89,6.89,0,0,0-9.33-1.1,6.26,6.26,0,0,0-2.51,4.2c0,.06,0,.11,0,.16.45.25.9.51,1.33.78a3,3,0,0,1,.9,4.29,3.27,3.27,0,0,1-2.21,1.35h-.07a28.8,28.8,0,0,0,.86,4.61c-3.92,14.41,4.54,19.65,16.62,19.89l.79.38a72.59,72.59,0,0,0-4.28,19.14,67.85,67.85,0,0,0,.06,11.58l0-.14a18.77,18.77,0,0,0-6.81-10.93c-5.23-4.09-12.63-5.6-18.28-8.88a3.86,3.86,0,0,0-5.17,1.07,3.49,3.49,0,0,0-.56,2.39l0,.14a21.67,21.67,0,0,1,2.45,1.12c.46.25.9.5,1.33.78a3,3,0,0,1,.9,4.29,3.26,3.26,0,0,1-2.21,1.34h-.07l-.13,0a30.6,30.6,0,0,0,6,8.89c2.45,12.57,13,13.76,24.23,10.1h0A72.51,72.51,0,0,0,372.66,574h19.07c.07-.2.13-.41.2-.61a23.32,23.32,0,0,1-5.28-.3l4.24-5L391,568l2.16-2.53h0a28.52,28.52,0,0,0-.93-7.69Z" transform="translate(0)"/><path class="cls-8" d="M0,573.32a1.19,1.19,0,0,0,1.18,1.19h253.3a1.19,1.19,0,0,0,0-2.38H1.19A1.18,1.18,0,0,0,0,573.31Z" transform="translate(0)"/><path class="cls-5" d="M76,70.12l6.36-.32A30.06,30.06,0,0,1,76,70.12Z" transform="translate(0)"/><polygon class="cls-2" points="113.95 94.61 112.9 95.87 110.09 99.27 85.77 128.66 50.44 94.29 51.85 93.23 59.35 78.08 97.85 75.57 109.37 92.83 113.95 94.61"/><ellipse class="cls-1" cx="675.28" cy="443.84" rx="27.53" ry="26.16"/></svg>