<svg id="Layer_1" data-name="Layer 1" xmlns="http://www.w3.org/2000/svg" viewBox="0 0 600.36 493.25"><defs><style>.cls-1{fill:#6c63ff;}.cls-2{fill:#3f3d56;}.cls-3{fill:#ffb6b6;}.cls-4{fill:#2f2e41;}.cls-5{fill:#f2f2f2;}.cls-6{fill:#fff;}.cls-7{fill:#e6e6e6;}.cls-8{fill:#ccc;}</style></defs><title>JeeMain</title><ellipse class="cls-1" cx="310.2" cy="171.04" rx="18.84" ry="18.65"/><path class="cls-2" d="M98.24,108.3V285.88a16.37,16.37,0,0,0,16.44,16.27H583.92a16.38,16.38,0,0,0,16.44-16.27V108.3A16.38,16.38,0,0,0,583.92,92H114.68A16.37,16.37,0,0,0,98.24,108.3Zm1.45,0a14.92,14.92,0,0,1,15-14.84H486.11c62.3,0,112.8,50,112.8,111.64v80.78a14.92,14.92,0,0,1-15,14.84H114.68a14.92,14.92,0,0,1-15-14.84h0Z" transform="translate(0 -81.25)"/><path class="cls-1" d="M414,453.3h8q6.87,0,6.87,5a6.94,6.94,0,0,1-2.4,5.63,10.17,10.17,0,0,1-6.75,2h-9.39q-5.15,0-7.94-2.31a8.09,8.09,0,0,1-2.79-6.61q0-2.76,2.07-8.07l12.71-32-9.54,11c-2.28,2.65-4.43,4-6.48,4q-4,0-5.19-5.89l-1.39-6.59-12.06,32q-6.23,16.47-9.5,22.39a35.93,35.93,0,0,1-8.45,10.28,26.16,26.16,0,0,1-17.26,6.27q-10.38,0-16.86-7T321.17,465A37.71,37.71,0,0,1,331.36,439a41.07,41.07,0,0,1,13.7-9.69,39.07,39.07,0,0,1,16.17-3.7,10.34,10.34,0,0,1,6.47,1.86,5.92,5.92,0,0,1,2.43,4.94,6.36,6.36,0,0,1-2.58,5.26c-1,.78-2.9,1.31-5.73,1.59q-9.84,1-15.88,4.84A24,24,0,0,0,338,452.5a21.83,21.83,0,0,0-2.94,10.89q0,6.06,2.86,9.53a9.67,9.67,0,0,0,7.87,3.48q6,0,10.41-5.49t9.71-19.42l19.63-51.89q2.58-6.86,6.93-6.85a5.42,5.42,0,0,1,4.37,1.91c1.07,1.28,2,3.51,2.8,6.69l3,12.22L417.5,397.9q4.89-5.14,9.15-5.15a7.07,7.07,0,0,1,5,1.94,6.25,6.25,0,0,1,2.05,4.7,10.92,10.92,0,0,1-.79,3.82l-1.14,3Z" transform="translate(0 -81.25)"/><path class="cls-1" d="M468.09,454.41h5.43q6.24,0,6.24,4.68a6.22,6.22,0,0,1-2.23,5.07A9.38,9.38,0,0,1,471.4,466h-6.33c-2.84,0-4.77-1.18-5.79-3.56-2.47,2.38-4.86,3.56-7.17,3.56h-5.63a10.69,10.69,0,0,1-8.78-4.17q-3.34-4.17-3.34-10.91a28.13,28.13,0,0,1,6.55-18.25q6.55-8,14.81-8,6.33,0,9.25,4.73,2.47-4,6.48-4a4.88,4.88,0,0,1,3.63,1.49,5,5,0,0,1,1.46,3.66,10.17,10.17,0,0,1-.79,3.56l-.54,1.44Zm-17.95.27h1.23a5.23,5.23,0,0,0,5.39-3.56l3.46-9.19a8.8,8.8,0,0,0,.69-3,3.13,3.13,0,0,0-1.31-2.5,4.81,4.81,0,0,0-3.14-1.06q-3.6,0-7,4.51a15.36,15.36,0,0,0-3.41,9.35Q446,454.69,450.14,454.68Z" transform="translate(0 -81.25)"/><path class="cls-1" d="M495.38,454.41H501q6.22,0,6.23,4.73a6.17,6.17,0,0,1-2.2,5.05,9.48,9.48,0,0,1-6.16,1.8H491a11,11,0,0,1-6.85-1.91,6.21,6.21,0,0,1-2.5-5.2,13.21,13.21,0,0,1,1-4.47l8.16-21.56.55-1.49q2.26-6,7.31-6a5,5,0,0,1,3.59,1.49,4.85,4.85,0,0,1,1.51,3.56,16.57,16.57,0,0,1-1.34,5.2Z" transform="translate(0 -81.25)"/><path class="cls-1" d="M545.72,454.41h5.93q6.29,0,6.28,4.73a6.16,6.16,0,0,1-2.22,5.05,9.48,9.48,0,0,1-6.13,1.8H539.24a7.05,7.05,0,0,1-5.07-2,6.59,6.59,0,0,1-2-4.94,16.89,16.89,0,0,1,1.39-5.42l4.35-11.58a9.83,9.83,0,0,0,.74-2.92,2.7,2.7,0,0,0-1-2.18,3.79,3.79,0,0,0-2.6-.9q-5.1,0-8.21,8.23L521,459.73q-2.62,7-7.82,7a5.1,5.1,0,0,1-3.61-1.38,4.46,4.46,0,0,1-1.48-3.4,10.22,10.22,0,0,1,.79-3.56l.54-1.44,10-26.45q1.94-5.14,6.58-5.15a5.6,5.6,0,0,1,5.44,3.61q5.3-4.35,10.09-4.35a10.63,10.63,0,0,1,7.66,2.87,9.6,9.6,0,0,1,3,7.27,15.42,15.42,0,0,1-1.09,5.37Z" transform="translate(0 -81.25)"/><path class="cls-1" d="M576.23,439.86l-.94,2.44q-2.17,5.26-6.18,5.26a5.15,5.15,0,0,1-3.63-1.51,4.63,4.63,0,0,1-1.61-3.48,12.67,12.67,0,0,1,1.43-4.94l6.58-14.34c1.61-3.43,3.63-5.15,6-5.15a4.6,4.6,0,0,1,3.32,1.35,4.38,4.38,0,0,1,1.38,3.22,14.93,14.93,0,0,1-.3,2.07,12.71,12.71,0,0,0-.19,2.07,12.39,12.39,0,0,0,2.32,6.85l2.82,4.2q4.31,6.42,4.3,12.42a14.92,14.92,0,0,1-4.65,11.19A16,16,0,0,1,575.34,466H565c-4.19,0-6.28-1.55-6.28-4.67a6.21,6.21,0,0,1,2.22-5.07,9.38,9.38,0,0,1,6.13-1.84h5.74q6.87,0,6.87-5.36a11,11,0,0,0-1.28-4.62Z" transform="translate(0 -81.25)"/><polygon class="cls-3" points="109.84 398.64 120.35 398.64 125.35 358.51 109.83 358.51 109.84 398.64"/><path class="cls-4" d="M109.47,490.75h32.32v-.41a12.52,12.52,0,0,0-12.58-12.45h0l-5.91-4.43-11,4.43h-2.82Z" transform="translate(0 -81.25)"/><polygon class="cls-3" points="63.99 398.64 74.5 398.64 79.5 358.51 63.98 358.51 63.99 398.64"/><path class="cls-4" d="M63.62,490.75H95.94v-.41a12.52,12.52,0,0,0-12.58-12.45h0l-5.91-4.43-11,4.43H63.62Z" transform="translate(0 -81.25)"/><path class="cls-4" d="M136,261.25S146.12,292,144.26,296s-5.06.89-1.87,4,6-.19,3,5.16-7.5,49.42-9.49,51.55-4.72,2.19-2.29,4.27,5.61-2.13,2.43,2.07-11.64,101.16-11.64,101.16H107.87s-4.11-4.69-1.78-7.74-.2-4.23,0-6.27-.57-6.44-.71-8.44-2.94-49.78,3.77-77.38L96.92,311.91l-14.8,63.51s6.81,53.28,0,70.4c0,0,5.49,4.53,3,7.15s-4.56.52-2.43,2.62-3.19,9.46-3.19,9.46L61.5,464,51.29,364.46s-1.72-10.38,0-12.16S53,356.82,53,350.52v-8.41s1-51.7,1.13-54.74S67,262.26,67,262.26Z" transform="translate(0 -81.25)"/><path class="cls-1" d="M135.86,155.07v60.62a57.5,57.5,0,0,0-3,18.2c.06,10.3,2.35,22.18,2.34,27.37a6.46,6.46,0,0,1-.22,2.05c-10.14,29.08-63.78,2.65-68.65.18l-.36-.18L67,230.73l-.18-9.36-1.25-64.25,1.12-.89,9.84-7.77,1-.76,3,4.27,26.35-1.79,10.06-2.76,3.14,1.27,14.14,5.69Z" transform="translate(0 -81.25)"/><path class="cls-3" d="M227.7,202.7l-18.47-6-5,10,19.76,5.7a6.55,6.55,0,0,0,9,2,6.42,6.42,0,0,0,2-8.89,6.56,6.56,0,0,0-7.35-2.75Z" transform="translate(0 -81.25)"/><path class="cls-1" d="M118,149.17l-.08.3c-1.44,5.72-3.28,22,.67,26.45,5.07,5.66,46,23,54.15,21.55,6.31-1.09,5-.73,8,2.38s-2,3.84,4.75,4.38,6.86-2,8.31.82.16,4.54,4.74,4.38,5.73.69,7.31,1,11.47,4.92,11.47,4.92,4-11.21,9-15.48c0,0-11.46-1.38-12.33-3.79s-.16-4.53-3.16-4.1-4.57,3.7-4.16-.41-21.24-12.12-21.24-12.12C172.33,166.69,145.48,157.84,118,149.17Z" transform="translate(0 -81.25)"/><path class="cls-3" d="M59.38,275.78l-.84-19.24-11.17-1.05L49,275.79a6.39,6.39,0,0,0,1.28,9,6.55,6.55,0,0,0,9.12-1.26A6.39,6.39,0,0,0,59.38,275.78Z" transform="translate(0 -81.25)"/><path class="cls-1" d="M71.05,155.25l-.31,0a18,18,0,0,0-13.86,9.44c-3.56,6.7-14.8,52.09-12.05,58.31,2.57,5.81,2.46,4.38.6,8.28s-4.33-.48-2.46,5.94,4.33,5.64,2.17,8-4.23,1.76-2.46,5.94,1.39,5.55,1.68,7.11-.58,12.37-.58,12.37,12-.3,17.81,2.81c0,0-2.76-11.1-.8-12.76S65,259,63.54,256.32s-5.11-2.92-1.08-4,3.92-24,3.92-24Z" transform="translate(0 -81.25)"/><path class="cls-3" d="M99.83,130.74c-.47.1-1,.2-1.42.27a19.82,19.82,0,0,1-4.35.22,20.34,20.34,0,1,1,21-25.41l.12.48A20.36,20.36,0,0,1,99.83,130.74Z" transform="translate(0 -81.25)"/><path class="cls-4" d="M80.86,128.34c-2.86-2.22-3.14-6.44-5.58-9.1-4.08-4.45-6-9.23-3.86-14.51,1.89-4.66,1.49-10.39,5.56-13.39-2-.72-2.47-2.2-.71-2.23,1.19,0,5.63,2.23,3.49-.57s1.91-1.7,1.64-2.85-2-1.78-2.73-.87c2.41-2.8,7.68-2.2,9.39,1.06,2.4-3.56,5-6,8.63-3.75s3.57,5,7.45,4.31c1.83-.31,2,3.1,3.25,4.46A5.61,5.61,0,0,0,112.28,93c1.82-.34,3.22-2.58,2.2-4.11l4.29,9.69,1.73-2.1c2.75,1.77,1.84,6.4-.92,8.14s-8-2.29-9.55.6c-2.37,4.55-7.92,2.25-11.73-1-4.63-3.9-10.21,8-8,13.55-2.31-2.25-6.59-.38-7.79,2.6s-.31,6.33.57,9.41Z" transform="translate(0 -81.25)"/><path class="cls-5" d="M366.45,195.3H344.7a2.12,2.12,0,0,1-2.13-2.11V171.93a2.11,2.11,0,0,1,2.13-2.11h21.75a2.12,2.12,0,0,1,2.13,2.11v21.26A2.13,2.13,0,0,1,366.45,195.3Z" transform="translate(0 -81.25)"/><path class="cls-5" d="M370.07,197.09H348.32a2.11,2.11,0,0,1-2.13-2.11V173.72a2.12,2.12,0,0,1,2.13-2.11h21.75a2.13,2.13,0,0,1,2.13,2.11V195A2.12,2.12,0,0,1,370.07,197.09Z" transform="translate(0 -81.25)"/><path class="cls-6" d="M345.15,170.45a1.94,1.94,0,0,0-1.95,1.93v20.36a1.94,1.94,0,0,0,1.95,1.93h13.3a9.44,9.44,0,0,0,9.49-9.39h0v-12.9a1.94,1.94,0,0,0-1.95-1.93Z" transform="translate(0 -81.25)"/><path class="cls-5" d="M361.4,176.63H349.7a.4.4,0,0,1,0-.8h11.7a.4.4,0,1,1,0,.8Z" transform="translate(0 -81.25)"/><path class="cls-5" d="M361.4,185.17H349.7a.4.4,0,1,1,0-.8h11.7a.4.4,0,0,1,0,.8Z" transform="translate(0 -81.25)"/><path class="cls-5" d="M366.15,180.9H345a.4.4,0,0,1,0-.8h21.2a.4.4,0,0,1,0,.8Z" transform="translate(0 -81.25)"/><path class="cls-5" d="M366.36,188.64h-7.65a.4.4,0,1,1,0-.8h7.65a.4.4,0,1,1,0,.8Z" transform="translate(0 -81.25)"/><path class="cls-5" d="M300.85,208.61l-.28-.14c-16.5-8.07-34.36-8.07-54.58,0l-.54-1.33c20.51-8.2,38.66-8.24,55.48-.11,23.67-8.92,38.88-24,45.22-44.91l1.39.41C341,184,325.43,199.43,301.15,208.5Z" transform="translate(0 -81.25)"/><path class="cls-5" d="M369.7,208.61l-.28-.13c-16.22-7.53-34.09-7.53-54.62,0l-.5-1.34c20.79-7.65,38.93-7.69,55.45-.11,26.5-10.48,41.71-25.56,45.22-44.83l1.42.25c-3.61,19.86-19.22,35.35-46.4,46Z" transform="translate(0 -81.25)"/><path class="cls-5" d="M424,207.85l-.18-.08c-13.36-5.69-30.75-5.67-54.72,0l-.34-1.4c24.18-5.76,41.81-5.77,55.45,0,27.09-3.28,41.85-17.95,45.13-44.84l1.44.17c-3.38,27.71-18.62,42.79-46.59,46.11Z" transform="translate(0 -81.25)"/><ellipse class="cls-1" cx="352.95" cy="78.53" rx="5.8" ry="5.74"/><ellipse class="cls-1" cx="418.16" cy="78.53" rx="5.8" ry="5.74"/><ellipse class="cls-1" cx="470.33" cy="77.81" rx="5.8" ry="5.74"/><path class="cls-7" d="M308.75,252.31H247.82a6,6,0,0,1-6-5.9V186.84a6,6,0,0,1,6-5.9h60.93a5.93,5.93,0,0,1,6,5.9v59.57A5.93,5.93,0,0,1,308.75,252.31Z" transform="translate(0 -81.25)"/><path class="cls-7" d="M298.6,247.29H237.67a5.93,5.93,0,0,1-6-5.9V181.82a5.93,5.93,0,0,1,6-5.9H298.6a5.94,5.94,0,0,1,6,5.9v59.57A5.94,5.94,0,0,1,298.6,247.29Z" transform="translate(0 -81.25)"/><path class="cls-6" d="M249,177.67a15.46,15.46,0,0,0-15.53,15.38h0v47.07a5.43,5.43,0,0,0,5.46,5.41h37.26a26.45,26.45,0,0,0,26.58-26.31V183.08a5.44,5.44,0,0,0-5.46-5.41Z" transform="translate(0 -81.25)"/><path class="cls-7" d="M284.46,195H251.69a1.13,1.13,0,1,1,0-2.25h32.77a1.13,1.13,0,1,1,0,2.25Z" transform="translate(0 -81.25)"/><path class="cls-7" d="M284.46,218.91H251.69a1.12,1.12,0,1,1,0-2.24h32.77a1.12,1.12,0,1,1,0,2.24Z" transform="translate(0 -81.25)"/><path class="cls-7" d="M297.76,207H238.39a1.13,1.13,0,1,1,0-2.25h59.38a1.13,1.13,0,1,1,0,2.25Z" transform="translate(0 -81.25)"/><path class="cls-7" d="M298.37,228.64H276.92a1.12,1.12,0,1,1,0-2.24h21.46a1.12,1.12,0,1,1,0,2.24Z" transform="translate(0 -81.25)"/><path class="cls-5" d="M443.25,192.43H421.5a2.12,2.12,0,0,1-2.13-2.11V169.06A2.13,2.13,0,0,1,421.5,167h21.75a2.12,2.12,0,0,1,2.13,2.11v21.26A2.11,2.11,0,0,1,443.25,192.43Z" transform="translate(0 -81.25)"/><path class="cls-5" d="M446.87,194.22H425.12a2.13,2.13,0,0,1-2.13-2.11V170.85a2.14,2.14,0,0,1,2.13-2.11h21.75a2.13,2.13,0,0,1,2.13,2.11v21.26A2.11,2.11,0,0,1,446.87,194.22Z" transform="translate(0 -81.25)"/><path class="cls-6" d="M422,167.58a1.94,1.94,0,0,0-1.95,1.93v20.36A1.94,1.94,0,0,0,422,191.8h13.3a9.44,9.44,0,0,0,9.49-9.39h0v-12.9a1.94,1.94,0,0,0-1.95-1.93Z" transform="translate(0 -81.25)"/><path class="cls-5" d="M438.2,173.76H426.51a.4.4,0,1,1,0-.8H438.2a.4.4,0,1,1,0,.8Z" transform="translate(0 -81.25)"/><path class="cls-5" d="M438.2,182.3H426.51a.4.4,0,1,1,0-.8H438.2a.4.4,0,1,1,0,.8Z" transform="translate(0 -81.25)"/><path class="cls-5" d="M443,178H421.76a.4.4,0,1,1,0-.8H443a.4.4,0,1,1,0,.8Z" transform="translate(0 -81.25)"/><path class="cls-5" d="M443.17,185.77h-7.66a.4.4,0,0,1,0-.8h7.66a.4.4,0,1,1,0,.8Z" transform="translate(0 -81.25)"/><path class="cls-1" d="M310.45,478.82a1.62,1.62,0,0,1-1.19-2.82l.11-.44,0-.11a4.44,4.44,0,0,0-8.15,0c-1.33,3.18-3,6.36-3.44,9.72a12.51,12.51,0,0,0,.23,4.44,51.32,51.32,0,0,1-4.77-21.52,49.75,49.75,0,0,1,.32-5.59c.17-1.52.41-3,.72-4.52a52,52,0,0,1,10.5-22.22,14.06,14.06,0,0,0,5.87-6,10.5,10.5,0,0,0,1-2.91c-.28,0-1.07-4.26-.86-4.53-.39-.59-1.11-.89-1.54-1.47-2.16-2.9-5.14-2.4-6.69,1.54-3.32,1.66-3.36,4.41-1.32,7.06,1.3,1.68,1.48,4,2.61,5.76-.11.15-.24.29-.35.44a52.5,52.5,0,0,0-5.57,8.73,21.71,21.71,0,0,0-1.32-10.19c-1.27-3-3.64-5.57-5.73-8.19a4.59,4.59,0,0,0-6.39-.78,4.49,4.49,0,0,0-1.72,3v.12c.31.17.62.36.91.55a2.19,2.19,0,0,1,.62,3.06,2.25,2.25,0,0,1-1.52,1h0a21.58,21.58,0,0,0,.58,3.29c-2.68,10.26,3.11,14,11.38,14.17l.54.27a53.75,53.75,0,0,0-2.93,13.65,50.5,50.5,0,0,0,0,8.25v-.1a13.49,13.49,0,0,0-4.66-7.79c-3.58-2.92-8.65-4-12.51-6.33a2.57,2.57,0,0,0-3.54.76,2.5,2.5,0,0,0-.38,1.7v.11a14.37,14.37,0,0,1,1.68.8,10.47,10.47,0,0,1,.91.55,2.19,2.19,0,0,1,.62,3.06,2.25,2.25,0,0,1-1.51,1h-.05l-.09,0a21.86,21.86,0,0,0,4.08,6.33c1.68,9,8.88,9.81,16.59,7.2h0a53.23,53.23,0,0,0,3.66,10.56h13.05c.05-.14.09-.29.14-.43a15.14,15.14,0,0,1-3.62-.22l2.91-3.53.06-.07c.49-.61,1-1.2,1.48-1.81h0a21.61,21.61,0,0,0-.64-5.48Z" transform="translate(0 -81.25)"/><path class="cls-8" d="M0,573.32a1.19,1.19,0,0,0,1.18,1.19h253.3a1.19,1.19,0,0,0,0-2.38H1.19A1.18,1.18,0,0,0,0,573.31Z" transform="translate(0 -81.25)"/><path class="cls-5" d="M94.06,131.23l4.35-.22A19.82,19.82,0,0,1,94.06,131.23Z" transform="translate(0 -81.25)"/><polygon class="cls-2" points="120 67.43 119.29 68.34 117.36 70.76 100.72 91.71 76.54 67.21 77.5 66.45 82.63 55.66 108.98 53.86 116.87 66.17 120 67.43"/><ellipse class="cls-1" cx="504.19" cy="316.36" rx="18.84" ry="18.65"/></svg>