<?xml version="1.0" encoding="UTF-8" standalone="no"?><!-- Generator: Gravit.io --><svg xmlns="http://www.w3.org/2000/svg" xmlns:xlink="http://www.w3.org/1999/xlink" style="isolation:isolate" viewBox="0 0 1366 768" width="1366pt" height="768pt"><defs><clipPath id="_clipPath_ZQjRUrnHXTpFUEbfmks19NZ8ngSocHut"><rect width="1366" height="768"/></clipPath></defs><g clip-path="url(#_clipPath_ZQjRUrnHXTpFUEbfmks19NZ8ngSocHut)"><g><rect x="0" y="-0.5" width="1366" height="683" transform="matrix(1,0,0,1,0,0)" fill="rgb(0,0,0)"/><g><path d=" M 683 86.875 L 0 172.25 L 0 684.5 L 1366 684.5 L 1366 172.25 L 683 86.875 Z " fill="rgb(34,34,34)"/><path d=" M 683 172.25 L 0 343 L 0 684.5 L 1366 684.5 L 1366 343 L 683 172.25 Z " fill="rgb(68,68,68)"/><path d=" M 683 257.625 L 0 513.75 L 0 684.5 L 1366 684.5 L 1366 513.75 L 683 257.625 Z " fill="rgb(102,102,102)"/><path d=" M 1366 684.5 L 683 343 L 0 684.5 L 1366 684.5 Z " fill="rgb(136,136,136)"/><path d=" M 1092.8 684.5 L 683 428.375 L 273.2 684.5 L 1092.8 684.5 Z " fill="rgb(170,170,170)"/><path d=" M 455.305 684.5 L 910.695 684.5 L 683 513.75 L 455.305 684.5 Z " fill="rgb(204,204,204)"/><path d=" M 584.05 684.5 L 780.584 684.5 L 683 599.125 L 584.05 684.5 Z " fill="rgb(238,238,238)"/></g></g><path d=" M -12 514.885 L -12 713 L 1393 713 L 1391 509 L 679 605 L -12 514.885 Z " fill="rgb(255,255,255)"/><path d=" M -17 -1 L 1379 1 L 1383 509 L 679 605 L -21 515 L -17 -1 Z " fill="rgb(32,33,36)" fill-opacity="0.79"/></g></svg>